<?xml version="1.0" standalone="no"?>
<!DOCTYPE svg PUBLIC "-//W3C//DTD SVG 1.1//EN" "http://www.w3.org/Graphics/SVG/1.1/DTD/svg11.dtd" >
<svg xmlns="http://www.w3.org/2000/svg" xmlns:xlink="http://www.w3.org/1999/xlink" version="1.1">
<metadata>
Created by FontForge 20170924 at Tue Mar 31 08:32:29 2020
 By root
Copyright \(c\) 2020 by MadeType. All rights reserved.
</metadata>
<defs>
<font id="MADETommySoft" horiz-adv-x="628" >
  <font-face 
    font-family="MADE Tommy Soft"
    font-weight="400"
    font-stretch="normal"
    units-per-em="1000"
    panose-1="2 0 5 3 0 0 0 2 0 4"
    ascent="800"
    descent="-200"
    x-height="507"
    cap-height="700"
    bbox="-53 -251 1234 966"
    underline-thickness="50"
    underline-position="-100"
    unicode-range="U+0020-20AC"
  />
    <missing-glyph />
    <glyph glyph-name="B" unicode="B" horiz-adv-x="604" 
d="M451 365c70 -26 113 -78 113 -162c0 -117 -78 -203 -240 -203h-227c-15 0 -27 12 -27 27v646c0 15 12 27 27 27h201c156 0 237 -74 237 -186c0 -67 -30 -116 -84 -147v-2zM298 609h-128v-211h119c75 0 146 22 146 108c0 82 -66 103 -137 103zM324 91c84 0 137 38 137 112
c0 86 -71 112 -146 112h-145v-224h154z" />
    <glyph glyph-name="C" unicode="C" horiz-adv-x="704" 
d="M401 81c76 0 137 29 180 74c9 10 23 12 34 4l38 -25c14 -9 17 -29 5 -41c-63 -65 -153 -105 -257 -105c-207 0 -356 157 -356 362s149 363 356 363c104 0 194 -40 257 -106c12 -12 9 -32 -5 -41l-38 -25c-11 -7 -25 -5 -34 4c-43 45 -104 74 -180 74
c-163 0 -254 -133 -254 -269s91 -269 254 -269z" />
    <glyph glyph-name="D" unicode="D" horiz-adv-x="678" 
d="M268 700c238 0 365 -152 365 -350s-127 -350 -365 -350h-171c-15 0 -27 12 -27 27v646c0 15 12 27 27 27h171zM268 91c166 0 264 102 264 259s-98 259 -264 259h-98v-518h98z" />
    <glyph glyph-name="E" unicode="E" horiz-adv-x="516" 
d="M170 91h268c15 0 27 -12 27 -26v-38c0 -15 -12 -27 -27 -27h-342c-14 0 -26 12 -26 27v646c0 15 12 27 26 27h333c15 0 27 -12 27 -27v-37c0 -15 -12 -27 -27 -27h-259v-201h236c15 0 27 -12 27 -27v-37c0 -15 -12 -27 -27 -27h-236v-226z" />
    <glyph glyph-name="F" unicode="F" horiz-adv-x="521" 
d="M471 636c0 -15 -12 -27 -27 -27h-274v-208h236c15 0 27 -12 27 -26v-38c0 -15 -12 -27 -27 -27h-236v-283c0 -15 -12 -27 -26 -27h-47c-15 0 -27 12 -27 27v646c0 15 12 27 27 27h347c15 0 27 -12 27 -27v-37z" />
    <glyph glyph-name="G" unicode="G" horiz-adv-x="782" 
d="M410 352c0 14 12 26 27 26h259c15 0 27 -12 27 -26v-330c0 -12 -10 -22 -23 -22h-21c-12 0 -21 9 -22 21l-7 94c-48 -79 -130 -127 -249 -127c-207 0 -356 157 -356 362s149 363 356 363c104 0 194 -40 257 -106c12 -12 9 -32 -5 -41l-38 -25c-11 -7 -25 -5 -34 4
c-43 45 -104 74 -180 74c-163 0 -254 -133 -254 -269s91 -269 254 -269c147 0 226 92 242 206h-206c-15 0 -27 12 -27 27v38z" />
    <glyph glyph-name="H" unicode="H" horiz-adv-x="672" 
d="M502 673c0 15 12 27 27 27h46c15 0 27 -12 27 -27v-646c0 -15 -12 -27 -27 -27h-46c-15 0 -27 12 -27 27v281h-332v-281c0 -15 -12 -27 -27 -27h-46c-15 0 -27 12 -27 27v646c0 15 12 27 27 27h46c15 0 27 -12 27 -27v-274h332v274z" />
    <glyph glyph-name="I" unicode="I" horiz-adv-x="240" 
d="M70 673c0 15 12 27 27 27h47c15 0 27 -12 27 -27v-646c0 -15 -12 -27 -27 -27h-47c-15 0 -27 12 -27 27v646z" />
    <glyph glyph-name="J" unicode="J" horiz-adv-x="568" 
d="M425 700h46c15 0 27 -12 27 -27v-447c0 -137 -62 -238 -230 -238c-131 0 -212 68 -233 164c-4 17 7 34 25 37l44 8c14 3 27 -6 31 -19c12 -47 49 -97 133 -97c107 0 130 77 130 145v447c0 15 12 27 27 27z" />
    <glyph glyph-name="K" unicode="K" horiz-adv-x="603" 
d="M551 37c13 -15 2 -37 -17 -37h-59c-13 0 -25 6 -34 15l-271 312v-300c0 -15 -12 -27 -26 -27h-47c-15 0 -27 12 -27 27v646c0 15 12 27 27 27h47c14 0 26 -12 26 -27v-307l254 317c9 11 22 17 35 17h52c18 0 29 -22 17 -36l-252 -310z" />
    <glyph glyph-name="L" unicode="L" horiz-adv-x="498" 
d="M170 91h261c15 0 27 -12 27 -26v-38c0 -15 -12 -27 -27 -27h-334c-15 0 -27 12 -27 27v646c0 15 12 27 27 27h46c15 0 27 -12 27 -27v-582z" />
    <glyph glyph-name="M" unicode="M" horiz-adv-x="858" 
d="M674 680c9 13 23 20 37 20h50c15 0 27 -12 27 -27v-646c0 -15 -12 -27 -27 -27h-47c-14 0 -26 12 -26 27v488l-234 -345c-4 -6 -11 -10 -19 -10h-12c-8 0 -14 4 -19 10l-234 345v-488c0 -15 -12 -27 -26 -27h-47c-15 0 -27 12 -27 27v646c0 15 12 27 27 27h50
c15 0 28 -7 37 -20l245 -365z" />
    <glyph glyph-name="N" unicode="N" horiz-adv-x="690" 
d="M520 673c0 15 12 27 27 27h47c14 0 26 -12 26 -27v-646c0 -15 -12 -27 -26 -27h-38c-14 0 -28 7 -36 19l-350 497v-489c0 -15 -12 -27 -26 -27h-47c-15 0 -27 12 -27 27v646c0 15 12 27 27 27h37c15 0 28 -7 37 -19l349 -496v488z" />
    <glyph glyph-name="O" unicode="O" horiz-adv-x="801" 
d="M401 712c207 0 355 -157 355 -362s-148 -363 -355 -363c-208 0 -356 158 -356 363s148 362 356 362zM401 81c163 0 254 133 254 269s-91 269 -254 269s-254 -133 -254 -269s91 -269 254 -269z" />
    <glyph glyph-name="P" unicode="P" horiz-adv-x="586" 
d="M294 700c158 0 252 -100 252 -228s-94 -229 -252 -229h-124v-216c0 -15 -11 -27 -26 -27h-47c-15 0 -27 12 -27 27v646c0 15 12 27 27 27h197zM294 335c94 0 150 55 150 137s-56 137 -150 137h-124v-274h124z" />
    <glyph glyph-name="Q" unicode="Q" horiz-adv-x="801" 
d="M756 350c0 -96 -33 -182 -89 -246l52 -52c11 -11 11 -28 0 -38l-26 -26c-10 -10 -27 -10 -37 1l-56 56c-56 -36 -124 -57 -199 -57c-208 0 -356 157 -356 362s148 363 356 363c207 0 355 -158 355 -363zM401 81c50 0 93 13 129 34l-87 88c-11 11 -11 28 0 38l25 25
c11 11 28 11 38 0l91 -91c38 49 57 112 57 175c0 136 -90 269 -253 269c-164 0 -254 -133 -254 -269s90 -269 254 -269z" />
    <glyph glyph-name="R" unicode="R" horiz-adv-x="598" 
d="M559 33c8 -15 -2 -33 -19 -33h-55c-17 0 -32 9 -39 24l-133 247c-9 -1 -18 -1 -27 -1h-116v-243c0 -15 -12 -27 -26 -27h-47c-15 0 -27 12 -27 27v646c0 15 12 27 27 27h189c160 0 251 -94 251 -215c0 -84 -44 -156 -126 -191zM170 361h116c96 0 149 49 149 124
s-53 124 -149 124h-116v-248z" />
    <glyph glyph-name="S" unicode="S" horiz-adv-x="559" 
d="M332 389c136 -32 197 -81 197 -194c0 -98 -67 -207 -247 -207c-97 0 -198 39 -241 130c-7 14 1 31 17 36l47 15c12 4 26 -1 32 -13c19 -39 68 -74 147 -74c76 0 143 33 143 105c0 95 -85 99 -196 126c-141 34 -173 108 -173 199c0 118 101 201 231 201
c90 0 166 -44 201 -122c7 -15 -2 -33 -18 -37l-47 -11c-12 -3 -24 3 -30 14c-20 38 -61 69 -137 62c-55 -6 -99 -51 -100 -107c0 -89 85 -103 174 -123z" />
    <glyph glyph-name="T" unicode="T" horiz-adv-x="534" 
d="M467 700c15 0 27 -12 27 -27v-37c0 -15 -12 -27 -27 -27h-150v-582c0 -15 -12 -27 -27 -27h-46c-15 0 -27 12 -27 27v582h-150c-15 0 -27 12 -27 27v37c0 15 12 27 27 27h400z" />
    <glyph glyph-name="U" unicode="U" horiz-adv-x="672" 
d="M529 700h46c15 0 27 -12 27 -27v-407c0 -182 -95 -278 -266 -278c-170 0 -266 96 -266 278v407c0 15 12 27 27 27h47c15 0 27 -12 27 -27v-389c0 -149 65 -202 165 -202c101 0 166 53 166 202v389c0 15 12 27 27 27z" />
    <glyph glyph-name="V" unicode="V" horiz-adv-x="675" 
d="M539 676c5 15 18 24 33 24h58c12 0 21 -12 16 -24l-243 -653c-5 -14 -18 -23 -33 -23h-64c-15 0 -28 9 -33 23l-244 653c-4 12 5 24 17 24h57c16 0 29 -9 34 -24l201 -569z" />
    <glyph glyph-name="W" unicode="W" horiz-adv-x="988" 
d="M852 675c5 15 18 25 34 25h58c12 0 20 -12 16 -23l-209 -652c-5 -15 -19 -25 -34 -25h-43c-16 0 -30 10 -34 25l-146 471l-146 -471c-4 -15 -18 -25 -34 -25h-43c-15 0 -29 10 -34 25l-209 652c-4 11 4 23 16 23h58c16 0 29 -10 34 -25l157 -518l159 518
c5 15 18 25 34 25h16c16 0 29 -10 34 -25l159 -518z" />
    <glyph glyph-name="X" unicode="X" horiz-adv-x="626" 
d="M589 27c8 -11 -1 -27 -15 -27h-65c-15 0 -29 8 -37 21l-158 249l-159 -249c-8 -13 -22 -21 -37 -21h-65c-14 0 -23 16 -15 27l210 329l-193 317c-8 12 1 27 15 27h64c16 0 31 -8 39 -22l141 -240l141 240c8 14 22 22 38 22h64c14 0 23 -15 16 -27l-194 -317z" />
    <glyph glyph-name="Y" unicode="Y" horiz-adv-x="662" 
d="M611 700c14 0 22 -15 15 -27l-245 -411v-235c0 -15 -12 -27 -27 -27h-46c-15 0 -27 12 -27 27v235l-245 411c-7 12 1 27 15 27h56c16 0 31 -8 38 -22l186 -326l186 326c8 14 22 22 38 22h56z" />
    <glyph glyph-name="Z" unicode="Z" horiz-adv-x="574" 
d="M170 91h337c15 0 27 -12 27 -26v-38c0 -15 -12 -27 -27 -27h-440c-15 0 -27 12 -27 27v27c0 13 4 25 11 35l353 520h-319c-15 0 -27 12 -27 27v37c0 15 12 27 27 27h413c15 0 27 -12 27 -27v-28c0 -12 -3 -24 -10 -34z" />
    <glyph glyph-name="a" unicode="a" 
d="M471 480c0 15 12 27 27 27h38c15 0 27 -12 27 -27v-453c0 -15 -12 -27 -27 -27h-38c-15 0 -27 12 -27 27v44c-37 -47 -96 -83 -184 -83c-158 0 -252 133 -252 265c0 133 94 266 252 266c88 0 147 -36 184 -83v44zM296 74c112 0 175 79 175 179c0 101 -63 180 -175 180
c-105 0 -168 -77 -168 -180c0 -102 63 -179 168 -179z" />
    <glyph glyph-name="b" unicode="b" 
d="M340 519c158 0 253 -133 253 -266c0 -132 -95 -265 -253 -265c-88 0 -146 36 -184 83v-44c0 -15 -12 -27 -27 -27h-37c-15 0 -27 12 -27 27v646c0 15 12 27 27 27h37c15 0 27 -12 27 -27v-237c38 47 96 83 184 83zM331 74c105 0 168 77 168 179c0 103 -63 180 -168 180
c-111 0 -175 -79 -175 -180c0 -100 64 -179 175 -179z" />
    <glyph glyph-name="c" unicode="c" horiz-adv-x="546" 
d="M301 74c56 0 104 24 134 63c8 10 23 13 34 7l31 -17c14 -8 18 -27 8 -40c-47 -60 -120 -99 -207 -99c-153 0 -266 119 -266 265c0 147 113 266 266 266c87 0 160 -39 207 -99c10 -13 6 -32 -8 -40l-31 -17c-11 -6 -26 -3 -34 7c-30 39 -78 63 -134 63
c-100 0 -172 -76 -172 -180c0 -103 72 -179 172 -179z" />
    <glyph glyph-name="d" unicode="d" 
d="M472 673c0 15 12 27 26 27h38c15 0 27 -12 27 -27v-646c0 -15 -12 -27 -27 -27h-38c-14 0 -26 12 -26 27v44c-38 -47 -97 -83 -185 -83c-158 0 -252 133 -252 265c0 133 94 266 252 266c88 0 147 -36 185 -83v237zM296 74c112 0 176 79 176 179c0 101 -64 180 -176 180
c-104 0 -168 -77 -168 -180c0 -102 64 -179 168 -179z" />
    <glyph glyph-name="e" unicode="e" horiz-adv-x="573" 
d="M291 519c129 0 251 -102 246 -270c0 -19 -16 -35 -35 -35h-371c15 -83 76 -140 176 -140c46 0 89 16 119 43c9 8 22 9 32 2l30 -19c15 -9 17 -29 6 -41c-46 -46 -111 -71 -187 -71c-168 0 -272 119 -272 265c0 147 107 266 256 266zM131 293h311c-12 85 -65 140 -151 140
c-87 0 -146 -56 -160 -140z" />
    <glyph glyph-name="f" unicode="f" horiz-adv-x="354" 
d="M299 636c-81 0 -92 -52 -93 -129h91c15 0 27 -12 27 -27v-33c0 -15 -12 -27 -27 -27h-91v-393c0 -15 -12 -27 -26 -27h-38c-15 0 -27 12 -27 27v393h-54c-14 0 -26 12 -26 27v33c0 15 12 27 26 27h54c0 107 35 206 174 206c5 0 9 -1 13 -1c12 0 22 -10 22 -22v-31
c0 -13 -10 -23 -23 -23h-2z" />
    <glyph glyph-name="g" unicode="g" horiz-adv-x="617" 
d="M461 480c0 15 12 27 27 27h37c15 0 27 -12 27 -27v-427c0 -144 -77 -255 -259 -255c-85 0 -163 29 -210 76c-12 12 -9 33 6 42l32 19c10 6 24 5 32 -3c24 -25 70 -48 140 -48c121 0 168 77 168 178v39c-35 -49 -90 -87 -173 -87c-148 0 -252 127 -252 253
s104 252 252 252c83 0 138 -38 173 -86v47zM297 101c97 0 164 70 164 166c0 93 -64 163 -158 166c-93 3 -174 -72 -174 -166c0 -95 73 -166 168 -166z" />
    <glyph glyph-name="h" unicode="h" horiz-adv-x="573" 
d="M312 519c114 0 195 -94 195 -202v-290c0 -15 -12 -27 -27 -27h-38c-14 0 -26 12 -26 27v264c0 71 -31 142 -126 142c-96 0 -134 -83 -134 -142v-264c0 -15 -12 -27 -27 -27h-38c-14 0 -26 12 -26 27v646c0 15 12 27 26 27h38c15 0 27 -12 27 -27v-237c30 45 79 83 156 83
z" />
    <glyph glyph-name="i" unicode="i" horiz-adv-x="222" 
d="M93 0c-15 0 -27 12 -27 27v453c0 15 12 27 27 27h37c15 0 27 -12 27 -27v-453c0 -15 -12 -27 -27 -27h-37zM111 597c-28 0 -52 23 -52 52s24 52 52 52c29 0 52 -23 52 -52s-23 -52 -52 -52z" />
    <glyph glyph-name="j" unicode="j" horiz-adv-x="222" 
d="M66 9v471c0 15 12 27 27 27h38c14 0 26 -12 26 -27v-489c0 -95 -52 -175 -175 -175h-13c-12 0 -22 10 -22 22v38c0 12 9 22 21 22c79 5 98 48 98 111zM112 597c-29 0 -52 23 -52 52s23 52 52 52s52 -23 52 -52s-23 -52 -52 -52z" />
    <glyph glyph-name="k" unicode="k" horiz-adv-x="502" 
d="M254 270l203 -241c10 -11 2 -29 -13 -29h-60c-14 0 -26 6 -34 16l-193 228v-217c0 -15 -12 -27 -27 -27h-38c-15 0 -27 12 -27 27v646c0 15 12 27 27 27h38c15 0 27 -12 27 -27v-391l170 208c9 11 21 17 35 17h51c15 0 23 -18 14 -29z" />
    <glyph glyph-name="l" unicode="l" horiz-adv-x="221" 
d="M65 673c0 15 12 27 27 27h38c15 0 26 -12 26 -27v-646c0 -15 -11 -27 -26 -27h-38c-15 0 -27 12 -27 27v646z" />
    <glyph glyph-name="m" unicode="m" horiz-adv-x="843" 
d="M600 519c97 0 178 -77 178 -184v-308c0 -15 -12 -27 -26 -27h-38c-15 0 -27 12 -27 27v282c0 71 -35 124 -108 124c-72 0 -112 -60 -112 -124v-282c0 -15 -12 -27 -26 -27h-38c-15 0 -27 12 -27 27v282c0 71 -35 124 -108 124c-72 0 -112 -60 -112 -124v-282
c0 -15 -12 -27 -26 -27h-38c-15 0 -27 12 -27 27v453c0 15 12 27 27 27h38c14 0 26 -12 26 -27v-33c28 40 73 72 137 72c61 0 114 -32 145 -81c32 45 86 81 162 81z" />
    <glyph glyph-name="n" unicode="n" horiz-adv-x="572" 
d="M312 519c114 0 195 -94 195 -202v-290c0 -15 -12 -27 -27 -27h-38c-14 0 -26 12 -26 27v264c0 71 -31 142 -126 142c-96 0 -134 -83 -134 -142v-264c0 -15 -12 -27 -27 -27h-38c-15 0 -26 12 -26 27v453c0 15 11 27 26 27h38c15 0 27 -12 27 -27v-44c30 45 79 83 156 83z
" />
    <glyph glyph-name="o" unicode="o" horiz-adv-x="602" 
d="M301 519c153 0 266 -120 266 -266s-113 -266 -266 -266s-266 120 -266 266s113 266 266 266zM301 74c100 0 173 76 173 179c0 104 -73 180 -173 180s-172 -76 -172 -180c0 -103 72 -179 172 -179z" />
    <glyph glyph-name="p" unicode="p" 
d="M340 519c158 0 253 -133 253 -266c0 -132 -95 -265 -253 -265c-88 0 -146 36 -184 83v-237c0 -15 -12 -27 -27 -27h-38c-14 0 -26 12 -26 27v646c0 15 12 27 26 27h38c15 0 27 -12 27 -27v-44c38 47 96 83 184 83zM331 74c105 0 168 77 168 179c0 103 -63 180 -168 180
c-111 0 -175 -79 -175 -180c0 -100 64 -179 175 -179z" />
    <glyph glyph-name="q" unicode="q" 
d="M472 480c0 15 12 27 26 27h38c15 0 27 -12 27 -27v-646c0 -15 -12 -27 -27 -27h-38c-14 0 -26 12 -26 27v237c-38 -47 -97 -83 -185 -83c-158 0 -252 133 -252 265c0 133 94 266 252 266c88 0 147 -36 185 -83v44zM296 74c112 0 176 79 176 179c0 101 -64 180 -176 180
c-104 0 -168 -77 -168 -180c0 -102 64 -179 168 -179z" />
    <glyph glyph-name="r" unicode="r" horiz-adv-x="360" 
d="M156 419c31 62 91 94 150 99c11 1 20 -7 20 -17v-65c0 -10 -9 -18 -19 -18c-133 7 -151 -101 -151 -191v-200c0 -15 -12 -27 -26 -27h-38c-15 0 -27 12 -27 27v453c0 15 12 27 27 27h38c14 0 26 -12 26 -27v-61z" />
    <glyph glyph-name="s" unicode="s" horiz-adv-x="453" 
d="M258 294c124 -26 166 -65 166 -142c0 -89 -65 -164 -199 -164c-87 0 -161 30 -193 86c-8 15 0 33 15 38l40 14c12 4 24 -1 31 -11c14 -22 45 -44 109 -44c66 0 103 27 103 72c0 60 -85 59 -156 75c-94 22 -136 68 -136 142c0 93 77 159 188 159c70 0 133 -31 161 -86
c8 -15 0 -34 -16 -38l-36 -10c-11 -3 -23 1 -29 11c-14 22 -43 42 -89 42c-50 0 -86 -29 -86 -71c0 -57 69 -61 127 -73z" />
    <glyph glyph-name="t" unicode="t" horiz-adv-x="367" 
d="M317 447c0 -15 -12 -27 -27 -27h-91v-222c0 -72 2 -120 80 -120h14c13 1 24 -9 24 -22v-37c0 -12 -9 -21 -20 -22c-9 -1 -19 -2 -29 -2c-111 0 -160 59 -160 171v254h-60c-15 0 -27 12 -27 27v33c0 15 12 27 27 27h60v80c0 14 12 26 27 26h37c15 0 27 -12 27 -26v-80h91
c15 0 27 -12 27 -27v-33z" />
    <glyph glyph-name="u" unicode="u" horiz-adv-x="572" 
d="M443 507h38c14 0 26 -12 26 -27v-453c0 -15 -12 -27 -26 -27h-38c-15 0 -27 12 -27 27v44c-30 -46 -79 -83 -156 -83c-114 0 -195 94 -195 202v290c0 15 12 27 27 27h38c14 0 26 -12 26 -27v-264c0 -71 31 -142 126 -142c96 0 134 82 134 142v264c0 15 12 27 27 27z" />
    <glyph glyph-name="v" unicode="v" horiz-adv-x="538" 
d="M408 484c6 14 19 23 34 23h44c16 0 26 -16 21 -30l-177 -454c-5 -14 -18 -23 -33 -23h-55c-15 0 -28 9 -33 23l-176 454c-6 14 5 30 20 30h45c14 0 28 -9 33 -23l139 -374z" />
    <glyph glyph-name="w" unicode="w" horiz-adv-x="774" 
d="M645 482c4 15 18 25 34 25h44c15 0 26 -15 21 -30l-152 -453c-5 -14 -18 -24 -34 -24h-34c-16 0 -29 10 -34 25l-103 320l-102 -320c-5 -15 -19 -25 -34 -25h-35c-15 0 -29 10 -33 24l-153 453c-5 15 6 30 21 30h45c15 0 29 -10 34 -25l105 -349l113 355
c4 11 14 19 26 19h27c11 0 22 -8 25 -19l113 -355z" />
    <glyph glyph-name="x" unicode="x" horiz-adv-x="510" 
d="M472 28c8 -12 0 -28 -15 -28h-58c-12 0 -23 6 -30 16l-113 167l-113 -167c-7 -10 -18 -16 -30 -16h-59c-14 0 -22 16 -14 28l158 233l-150 218c-8 12 1 28 15 28h58c12 0 24 -6 30 -17l104 -162l106 163c6 10 17 16 30 16h58c14 0 23 -16 15 -28l-151 -218z" />
    <glyph glyph-name="y" unicode="y" horiz-adv-x="537" 
d="M407 484c5 14 19 23 33 23h45c15 0 26 -16 20 -31c-39 -99 -162 -411 -189 -476c-48 -118 -96 -193 -190 -193c-10 0 -17 0 -25 1c-11 0 -20 10 -20 22v38c0 12 9 22 21 22c55 2 91 30 130 136c-7 18 -152 346 -199 450c-6 14 5 31 21 31h44c14 0 27 -9 32 -22l147 -344z
" />
    <glyph glyph-name="z" unicode="z" horiz-adv-x="474" 
d="M160 86h242c15 0 27 -12 27 -26v-33c0 -15 -12 -27 -27 -27h-331c-15 0 -27 12 -27 27v32c0 10 4 19 9 27l251 334h-224c-15 0 -27 12 -27 27v33c0 15 12 27 27 27h313c15 0 27 -12 27 -27v-32c0 -10 -3 -19 -9 -27z" />
    <glyph glyph-name="zero" unicode="0" horiz-adv-x="636" 
d="M318 712c201 0 273 -186 273 -362s-72 -363 -273 -363s-273 187 -273 363s72 362 273 362zM318 81c134 0 173 149 173 269s-39 269 -173 269s-173 -149 -173 -269s39 -269 173 -269z" />
    <glyph glyph-name="one" unicode="1" horiz-adv-x="438" 
d="M232 693c8 4 16 7 25 7h24c15 0 27 -12 27 -27v-646c0 -15 -12 -27 -27 -27h-46c-15 0 -27 12 -27 27v545l-110 -74c-12 -8 -29 -4 -37 9l-18 28c-7 12 -4 28 8 36z" />
    <glyph glyph-name="two" unicode="2" horiz-adv-x="542" 
d="M194 90h262c14 0 26 -12 26 -26v-37c0 -15 -12 -27 -26 -27h-378c-15 0 -27 12 -27 27v25c0 11 5 22 12 30c51 56 79 88 142 162c77 91 169 190 169 262c0 68 -38 118 -110 118c-65 0 -99 -43 -114 -84c-4 -13 -18 -20 -30 -17l-42 10c-15 3 -24 20 -19 35
c34 94 116 145 216 145c114 0 198 -91 198 -207c0 -111 -105 -207 -279 -416z" />
    <glyph glyph-name="three" unicode="3" horiz-adv-x="568" 
d="M397 370c81 -27 126 -84 126 -163c0 -127 -90 -219 -243 -219c-102 0 -194 49 -226 124c-7 15 2 32 18 36l43 10c12 2 24 -3 29 -14c17 -32 59 -67 136 -67c86 0 144 43 144 130c0 92 -90 110 -150 110h-37c-12 0 -22 10 -22 22v40c0 12 10 22 22 22h37
c59 0 123 26 123 111c0 58 -36 112 -117 112c-62 0 -97 -31 -114 -64c-5 -11 -18 -17 -30 -14l-40 9c-16 4 -25 22 -18 38c36 74 116 120 202 120c131 0 211 -84 211 -192c0 -67 -34 -121 -94 -151z" />
    <glyph glyph-name="four" unicode="4" horiz-adv-x="627" 
d="M550 246c15 0 27 -12 27 -27v-35c0 -15 -12 -27 -27 -27h-64v-130c0 -15 -12 -27 -27 -27h-47c-15 0 -27 12 -27 27v130h-309c-15 0 -27 12 -27 27v35c0 12 4 23 10 33l268 423c9 16 26 25 45 25h87c15 0 27 -12 27 -27v-427h64zM160 246h225v356z" />
    <glyph glyph-name="five" unicode="5" horiz-adv-x="569" 
d="M294 452c137 0 229 -98 229 -227c0 -127 -92 -237 -245 -237c-101 0 -192 49 -224 123c-7 16 2 34 18 37l43 10c12 3 24 -3 29 -14c17 -32 58 -67 134 -67c86 0 148 61 148 148c0 90 -60 139 -142 139c-52 0 -95 -23 -120 -44c-11 -9 -25 -12 -39 -9l-33 8
c-13 4 -22 16 -20 29l38 328c1 14 13 24 26 24h319c15 0 27 -12 27 -27v-37c0 -14 -12 -26 -27 -26h-265l-23 -200c33 24 75 42 127 42z" />
    <glyph glyph-name="six" unicode="6" horiz-adv-x="582" 
d="M291 462c136 0 246 -95 246 -237c0 -127 -94 -237 -246 -237s-246 110 -246 237c0 97 52 168 78 206l170 246c10 14 26 23 44 23h50c14 0 23 -16 14 -28l-153 -215c13 3 27 5 43 5zM291 77c83 0 148 61 148 148c0 91 -70 148 -148 148c-84 0 -148 -60 -148 -148
c0 -87 65 -148 148 -148z" />
    <glyph glyph-name="seven" unicode="7" horiz-adv-x="528" 
d="M50 673c0 15 12 27 26 27h375c15 0 27 -12 27 -27v-37c0 -8 -2 -16 -5 -23l-236 -596c-4 -10 -14 -17 -25 -17h-56c-13 0 -22 13 -17 24l233 586h-296c-14 0 -26 12 -26 26v37z" />
    <glyph glyph-name="eight" unicode="8" horiz-adv-x="596" 
d="M434 378c72 -35 117 -99 117 -179c0 -125 -102 -212 -253 -212s-253 87 -253 212c0 80 46 144 117 179c-56 34 -81 89 -81 146c0 104 76 188 217 188s218 -84 218 -188c0 -57 -25 -112 -82 -146zM298 623c-74 0 -121 -41 -121 -104c0 -66 55 -105 121 -105
s122 39 122 105c0 63 -47 104 -122 104zM298 76c85 0 148 47 148 126c0 86 -68 125 -148 125c-79 0 -148 -39 -148 -125c0 -79 64 -126 148 -126z" />
    <glyph glyph-name="nine" unicode="9" horiz-adv-x="583" 
d="M291 238c-136 0 -246 95 -246 237c0 127 94 238 246 238s246 -111 246 -238c0 -97 -52 -167 -78 -205l-170 -247c-10 -14 -26 -23 -44 -23h-50c-15 0 -23 16 -15 28l154 215c-13 -3 -27 -5 -43 -5zM291 624c-83 0 -148 -62 -148 -149c0 -91 70 -148 148 -148
c84 0 148 60 148 148c0 87 -65 149 -148 149z" />
    <glyph glyph-name="period" unicode="." horiz-adv-x="225" 
d="M112 112c35 0 63 -28 63 -62c0 -35 -28 -63 -63 -63c-34 0 -62 28 -62 63c0 34 28 62 62 62z" />
    <glyph glyph-name="comma" unicode="," horiz-adv-x="244" 
d="M98 87c7 14 24 20 37 12l35 -20c13 -8 17 -25 9 -38l-85 -131c-8 -12 -24 -15 -36 -8l-16 9c-13 7 -17 22 -11 35z" />
    <glyph glyph-name="colon" unicode=":" horiz-adv-x="245" 
d="M122 112c35 0 63 -28 63 -62c0 -35 -28 -63 -63 -63c-34 0 -62 28 -62 63c0 34 28 62 62 62zM122 394c-34 0 -62 28 -62 63c0 34 28 62 62 62c35 0 63 -28 63 -62c0 -35 -28 -63 -63 -63z" />
    <glyph glyph-name="semicolon" unicode=";" horiz-adv-x="278" 
d="M156 394c-35 0 -63 28 -63 63c0 34 28 62 63 62c34 0 62 -28 62 -62c0 -35 -28 -63 -62 -63zM51 -89c-12 7 -17 22 -11 35l68 141c6 14 23 20 37 12l35 -20c13 -8 17 -25 9 -38l-86 -131c-7 -12 -23 -15 -35 -8z" />
    <glyph glyph-name="exclam" unicode="!" horiz-adv-x="265" 
d="M132 112c35 0 63 -27 63 -62c0 -34 -28 -62 -63 -62c-34 0 -62 28 -62 62c0 35 28 62 62 62zM169 234c-1 -14 -13 -26 -27 -26h-19c-15 0 -27 12 -27 26l-13 439c0 15 12 27 27 27h44c15 0 27 -12 27 -27z" />
    <glyph glyph-name="question" unicode="?" horiz-adv-x="462" 
d="M234 112c34 0 62 -27 62 -62c0 -34 -28 -62 -62 -62c-35 0 -63 28 -63 62c0 35 28 62 63 62zM336 518c0 53 -37 106 -106 106c-53 0 -86 -31 -102 -65c-6 -14 -21 -21 -36 -18l-33 9c-16 4 -24 21 -18 36c36 86 116 127 198 127c107 0 194 -85 194 -186
c0 -147 -135 -172 -150 -295c-2 -13 -13 -24 -27 -24h-41c-16 0 -28 14 -27 30c16 145 148 174 148 280z" />
    <glyph glyph-name="questiondown" unicode="&#xbf;" horiz-adv-x="462" 
d="M230 394c-35 0 -63 28 -63 63c0 34 28 62 63 62c34 0 62 -28 62 -62c0 -35 -28 -63 -62 -63zM127 -11c0 -53 37 -106 106 -106c53 0 87 31 102 65c6 14 22 21 36 18l33 -9c16 -4 25 -21 19 -36c-37 -86 -116 -127 -199 -127c-106 0 -194 85 -194 185
c0 148 135 173 151 296c2 13 13 24 26 24h42c15 0 28 -14 26 -30c-16 -145 -148 -174 -148 -280z" />
    <glyph glyph-name="exclamdown" unicode="&#xa1;" horiz-adv-x="264" 
d="M132 394c-35 0 -63 28 -63 63c0 34 28 62 63 62c34 0 62 -28 62 -62c0 -35 -28 -63 -62 -63zM95 273c1 14 13 26 27 26h19c15 0 27 -12 27 -26l12 -439c1 -15 -11 -27 -26 -27h-44c-16 0 -28 12 -27 27z" />
    <glyph glyph-name="hyphen" unicode="-" horiz-adv-x="461" 
d="M70 316c0 15 12 26 26 26h268c14 0 26 -11 26 -26v-36c0 -15 -12 -27 -26 -27h-268c-14 0 -26 12 -26 27v36z" />
    <glyph glyph-name="endash" unicode="&#x2013;" horiz-adv-x="514" 
d="M70 316c0 15 12 26 27 26h321c15 0 26 -11 26 -26v-36c0 -15 -11 -27 -26 -27h-321c-15 0 -27 12 -27 27v36z" />
    <glyph glyph-name="emdash" unicode="&#x2014;" horiz-adv-x="567" 
d="M70 316c0 15 12 26 26 26h374c15 0 27 -11 27 -26v-36c0 -15 -12 -27 -27 -27h-374c-14 0 -26 12 -26 27v36z" />
    <glyph glyph-name="underscore" unicode="_" horiz-adv-x="426" 
d="M30 -110c0 12 10 22 22 22h321c12 0 22 -10 22 -22v-36c0 -12 -10 -22 -22 -22h-321c-12 0 -22 10 -22 22v36z" />
    <glyph glyph-name="plus" unicode="+" horiz-adv-x="532" 
d="M435 342c15 0 27 -11 27 -26v-36c0 -15 -12 -27 -27 -27h-125v-124c0 -15 -12 -27 -26 -27h-36c-15 0 -27 12 -27 27v124h-124c-15 0 -27 12 -27 27v36c0 15 12 26 27 26h124v125c0 15 12 27 27 27h36c14 0 26 -12 26 -27v-125h125z" />
    <glyph glyph-name="multiply" unicode="&#xd7;" horiz-adv-x="460" 
d="M319 449c10 11 27 11 37 0l26 -25c10 -11 10 -27 0 -38l-89 -88l89 -88c10 -11 10 -28 0 -38l-26 -25c-10 -11 -27 -11 -37 0l-89 88l-88 -88c-10 -11 -27 -11 -38 0l-25 25c-10 10 -10 27 0 38l88 88l-88 88c-10 11 -10 27 0 38l25 25c11 11 28 11 38 0l88 -88z" />
    <glyph glyph-name="divide" unicode="&#xf7;" horiz-adv-x="532" 
d="M70 316c0 15 12 26 27 26h338c15 0 27 -11 27 -26v-36c0 -15 -12 -27 -27 -27h-338c-15 0 -27 12 -27 27v36zM266 446c-32 0 -59 26 -59 58c0 33 27 59 59 59s59 -26 59 -59c0 -32 -27 -58 -59 -58zM266 150c32 0 59 -26 59 -58c0 -33 -27 -59 -59 -59s-59 26 -59 59
c0 32 27 58 59 58z" />
    <glyph glyph-name="equal" unicode="=" horiz-adv-x="514" 
d="M70 405c0 15 12 26 27 26h321c14 0 26 -11 26 -26v-36c0 -15 -12 -27 -26 -27h-321c-15 0 -27 12 -27 27v36zM97 164c-15 0 -27 12 -27 27v36c0 14 12 26 27 26h321c14 0 26 -12 26 -26v-36c0 -15 -12 -27 -26 -27h-321z" />
    <glyph glyph-name="less" unicode="&#x3c;" horiz-adv-x="514" 
d="M419 477c12 5 25 -4 25 -16v-39c0 -14 -9 -27 -22 -33l-274 -114l274 -114c13 -5 22 -18 22 -33v-38c0 -13 -13 -21 -25 -16l-328 142c-13 6 -21 19 -21 33v53c0 14 8 27 21 32z" />
    <glyph glyph-name="greater" unicode="&#x3e;" horiz-adv-x="514" 
d="M95 74c-12 -5 -25 3 -25 16v38c0 15 9 28 22 33l274 114l-274 114c-13 6 -22 19 -22 33v39c0 12 13 21 25 16l328 -143c13 -5 21 -18 21 -32v-53c0 -14 -8 -27 -21 -33z" />
    <glyph glyph-name="plusminus" unicode="&#xb1;" horiz-adv-x="532" 
d="M310 423h125c15 0 27 -12 27 -27v-36c0 -14 -12 -26 -27 -26h-125v-125c0 -15 -12 -27 -27 -27h-35c-15 0 -27 12 -27 27v125h-125c-14 0 -26 12 -26 26v36c0 15 12 27 26 27h125v124c0 15 12 27 27 27h35c15 0 27 -12 27 -27v-124zM96 0c-14 0 -26 12 -26 27v35
c0 15 12 27 26 27h339c15 0 27 -12 27 -27v-35c0 -15 -12 -27 -27 -27h-339z" />
    <glyph glyph-name="guillemotleft" unicode="&#xab;" horiz-adv-x="544" 
d="M160 412c6 10 17 16 29 16h45c15 0 23 -16 15 -28l-101 -149l101 -149c8 -12 0 -28 -15 -28h-45c-12 0 -23 6 -29 16l-93 136c-10 15 -10 35 0 50zM461 428c14 0 22 -16 14 -28l-101 -149l101 -149c8 -12 0 -28 -14 -28h-46c-11 0 -22 6 -29 16l-93 136
c-10 15 -10 35 0 50l93 136c7 10 18 16 29 16h46z" />
    <glyph glyph-name="guillemotright" unicode="&#xbb;" horiz-adv-x="545" 
d="M385 412l93 -136c10 -15 10 -35 0 -50l-93 -136c-6 -10 -17 -16 -29 -16h-45c-15 0 -23 16 -15 28l101 149l-101 149c-8 12 0 28 15 28h45c12 0 23 -6 29 -16zM84 428h46c11 0 22 -6 29 -16l93 -136c10 -15 10 -35 0 -50l-93 -136c-7 -10 -18 -16 -29 -16h-46
c-14 0 -22 16 -14 28l101 149l-101 149c-8 12 0 28 14 28z" />
    <glyph glyph-name="asciitilde" unicode="~" horiz-adv-x="591" 
d="M468 365l40 -8c13 -3 21 -16 17 -29c-19 -63 -61 -93 -125 -93c-80 0 -137 45 -198 45c-27 0 -45 -14 -53 -35c-4 -10 -15 -16 -26 -14l-40 8c-13 3 -20 16 -16 29c20 61 59 93 130 93c77 0 137 -46 193 -46c30 0 45 14 53 35c3 11 14 17 25 15z" />
    <glyph glyph-name="asciicircum" unicode="^" horiz-adv-x="528" 
d="M463 428c7 -12 -2 -26 -16 -26h-44c-13 0 -25 7 -32 18l-107 198l-107 -198c-7 -11 -19 -18 -32 -18h-45c-13 0 -22 14 -15 26l141 250c8 13 23 22 39 22h38c16 0 31 -9 39 -22z" />
    <glyph glyph-name="dagger" unicode="&#x2020;" horiz-adv-x="517" 
d="M421 531c14 0 26 -12 26 -27v-35c0 -15 -12 -27 -26 -27h-117v-415c0 -15 -12 -27 -26 -27h-38c-15 0 -27 12 -27 27v415h-116c-15 0 -27 12 -27 27v35c0 15 12 27 27 27h116v142c0 15 12 27 27 27h38c14 0 26 -12 26 -27v-142h117z" />
    <glyph glyph-name="daggerdbl" unicode="&#x2021;" horiz-adv-x="518" 
d="M448 469c0 -15 -12 -27 -27 -27h-116v-184h116c15 0 27 -12 27 -26v-36c0 -15 -12 -27 -27 -27h-116v-142c0 -15 -12 -27 -27 -27h-38c-15 0 -26 12 -26 27v142h-117c-15 0 -27 12 -27 27v36c0 14 12 26 27 26h117v184h-117c-15 0 -27 12 -27 27v35c0 15 12 27 27 27h117
v142c0 15 11 27 26 27h38c15 0 27 -12 27 -27v-142h116c15 0 27 -12 27 -27v-35z" />
    <glyph glyph-name="paragraph" unicode="&#xb6;" horiz-adv-x="640" 
d="M581 673v-41c0 -15 -12 -27 -27 -27h-49v-667c0 -15 -12 -26 -27 -26h-35c-15 0 -27 11 -27 26v667h-109v-667c0 -15 -12 -26 -26 -26h-36c-15 0 -27 11 -27 26v430c-98 3 -178 60 -178 166c0 109 84 166 186 166h328c15 0 27 -12 27 -27z" />
    <glyph glyph-name="slash" unicode="/" horiz-adv-x="478" 
d="M331 772c5 15 18 24 34 24h39c12 0 20 -11 17 -23l-274 -845c-5 -14 -18 -24 -34 -24h-39c-12 0 -20 11 -17 23z" />
    <glyph glyph-name="braceleft" unicode="{" horiz-adv-x="393" 
d="M227 468c0 -62 -25 -104 -78 -116v-4c53 -12 78 -53 78 -115v-112c0 -75 2 -131 84 -131c13 0 23 -10 23 -23v-41c0 -12 -10 -22 -23 -22h-11c-114 0 -162 50 -162 172v156c0 53 -16 72 -49 77c-11 1 -19 11 -19 22v38c0 11 8 21 19 23c33 4 49 23 49 76v157
c0 121 48 171 162 171h11c13 0 23 -10 23 -22v-41c0 -13 -10 -22 -23 -22c-82 0 -84 -57 -84 -132v-111z" />
    <glyph glyph-name="bracketleft" unicode="[" horiz-adv-x="331" 
d="M271 737c0 -15 -12 -26 -27 -26h-85v-721h85c15 0 27 -12 27 -27v-33c0 -14 -12 -26 -27 -26h-147c-15 0 -27 12 -27 26v840c0 15 12 26 27 26h147c15 0 27 -11 27 -26v-33z" />
    <glyph glyph-name="guilsinglleft" unicode="&#x2039;" horiz-adv-x="318" 
d="M160 412c6 10 17 16 29 16h45c15 0 23 -16 15 -28l-101 -149l101 -149c8 -12 0 -28 -15 -28h-45c-12 0 -23 6 -29 16l-93 136c-10 15 -10 35 0 50z" />
    <glyph glyph-name="guilsinglright" unicode="&#x203a;" horiz-adv-x="318" 
d="M84 428h46c11 0 22 -6 29 -16l93 -136c10 -15 10 -35 0 -50l-93 -136c-7 -10 -18 -16 -29 -16h-46c-14 0 -22 16 -14 28l101 149l-101 149c-8 12 0 28 14 28z" />
    <glyph glyph-name="parenleft" unicode="(" horiz-adv-x="329" 
d="M249 747c11 -8 14 -23 8 -35c-45 -76 -98 -198 -98 -362s53 -286 98 -362c6 -11 3 -26 -8 -35l-19 -14c-13 -9 -30 -6 -39 7c-56 89 -121 218 -121 404s65 315 121 404c9 13 26 17 39 7z" />
    <glyph glyph-name="bar" unicode="|" horiz-adv-x="229" 
d="M70 730c0 15 12 27 27 27h35c15 0 27 -12 27 -27v-852c0 -15 -12 -27 -27 -27h-35c-15 0 -27 12 -27 27v852z" />
    <glyph glyph-name="brokenbar" unicode="&#xa6;" horiz-adv-x="229" 
d="M96 -149c-14 0 -26 12 -26 27v302c0 14 12 26 26 26h36c15 0 27 -12 27 -26v-302c0 -15 -12 -27 -27 -27h-36zM70 730c0 15 12 27 26 27h36c15 0 27 -12 27 -27v-301c0 -15 -12 -27 -27 -27h-36c-14 0 -26 12 -26 27v301z" />
    <glyph glyph-name="parenright" unicode=")" horiz-adv-x="329" 
d="M80 747l20 14c12 10 30 6 38 -7c56 -89 121 -218 121 -404s-65 -315 -121 -404c-8 -13 -26 -16 -38 -7l-20 14c-11 9 -14 24 -7 35c44 76 97 198 97 362s-53 286 -97 362c-7 12 -4 27 7 35z" />
    <glyph glyph-name="bracketright" unicode="]" horiz-adv-x="330" 
d="M59 737v33c0 15 12 26 27 26h147c15 0 27 -11 27 -26v-840c0 -14 -12 -26 -27 -26h-147c-15 0 -27 12 -27 26v33c0 15 12 27 27 27h85v721h-85c-15 0 -27 11 -27 26z" />
    <glyph glyph-name="braceright" unicode="}" horiz-adv-x="393" 
d="M166 468v111c0 75 -2 132 -83 132h-1c-12 0 -22 9 -22 22v41c0 12 10 22 22 22h11c114 0 162 -50 162 -171v-157c0 -53 16 -72 49 -76c11 -2 19 -12 19 -23v-38c0 -11 -8 -21 -19 -22c-33 -5 -49 -24 -49 -77v-156c0 -122 -48 -172 -162 -172h-11c-12 0 -22 10 -22 22v41
c0 13 10 23 22 23h1c81 0 83 56 83 131v112c0 62 25 103 78 115v4c-53 12 -78 54 -78 116z" />
    <glyph glyph-name="backslash" unicode="\" horiz-adv-x="478" 
d="M147 772l273 -845c4 -12 -4 -23 -16 -23h-39c-16 0 -29 10 -34 24l-274 845c-3 12 5 23 17 23h39c16 0 29 -9 34 -24z" />
    <glyph glyph-name="dollar" unicode="$" horiz-adv-x="558" 
d="M529 195c0 -90 -55 -188 -201 -205v-78c0 -12 -10 -22 -23 -22h-35c-13 0 -23 10 -23 22v77c-85 9 -168 49 -206 129c-7 14 1 31 17 36l47 15c12 4 26 -1 32 -13c19 -39 68 -74 147 -74c76 0 143 33 143 105c0 95 -85 99 -196 126c-141 34 -173 108 -173 199
c0 105 80 182 189 198v78c0 13 10 22 23 22h35c13 0 23 -9 23 -22v-78c72 -11 132 -52 162 -119c7 -15 -2 -33 -18 -37l-47 -11c-12 -3 -24 3 -30 14c-20 38 -61 69 -137 62c-55 -6 -99 -51 -100 -107c0 -89 85 -103 174 -123c136 -32 197 -81 197 -194z" />
    <glyph glyph-name="cent" unicode="&#xa2;" horiz-adv-x="590" 
d="M316 170c56 0 103 24 134 64c8 10 22 13 34 7l30 -17c15 -8 19 -27 9 -40c-43 -55 -107 -92 -184 -99v-63c0 -12 -10 -22 -22 -22h-35c-13 0 -23 10 -23 22v68c-123 25 -209 133 -209 260c0 128 86 235 209 260v68c0 12 10 22 23 22h35c12 0 22 -10 22 -22v-63
c77 -7 141 -44 184 -99c10 -13 6 -32 -9 -40l-30 -16c-12 -7 -26 -4 -34 6c-31 40 -78 64 -134 64c-100 0 -173 -76 -173 -180s73 -180 173 -180z" />
    <glyph glyph-name="Euro" unicode="&#x20ac;" horiz-adv-x="763" 
d="M455 81c76 0 137 29 180 74c9 10 23 12 34 4l39 -25c13 -9 16 -29 4 -41c-63 -65 -152 -105 -257 -105c-174 0 -306 110 -344 267h-63c-10 0 -18 8 -18 17v27c0 10 8 18 18 18h53c-1 11 -1 22 -1 33s0 22 1 33h-53c-10 0 -18 8 -18 18v27c0 10 8 17 18 17h63
c38 157 170 268 344 268c105 0 194 -40 257 -106c12 -12 9 -32 -4 -41l-39 -25c-11 -7 -25 -5 -34 4c-43 45 -104 74 -180 74c-124 0 -206 -77 -238 -174h242c10 0 18 -7 18 -17v-27c0 -10 -8 -18 -18 -18h-256c-1 -11 -2 -22 -2 -33s1 -22 2 -33h256c10 0 18 -8 18 -18v-27
c0 -9 -8 -17 -18 -17h-242c32 -97 114 -174 238 -174z" />
    <glyph glyph-name="yen" unicode="&#xa5;" horiz-adv-x="662" 
d="M611 700c14 0 23 -15 16 -27l-210 -352h115c10 0 18 -8 18 -17v-27c0 -10 -8 -18 -18 -18h-151v-66h151c10 0 18 -8 18 -18v-27c0 -9 -8 -17 -18 -17h-151v-104c0 -15 -12 -27 -26 -27h-47c-15 0 -27 12 -27 27v104h-151c-9 0 -17 8 -17 17v27c0 10 8 18 17 18h151v66
h-151c-9 0 -17 8 -17 18v27c0 9 8 17 17 17h116l-210 352c-7 12 2 27 15 27h56c16 0 31 -8 39 -22l185 -326l186 326c8 14 23 22 39 22h55z" />
    <glyph glyph-name="sterling" unicode="&#xa3;" horiz-adv-x="581" 
d="M155 90h349c15 0 27 -12 27 -26v-37c0 -15 -12 -27 -27 -27h-428c-15 0 -27 12 -27 27v40c0 14 7 27 18 36c50 38 84 91 84 167c0 12 -1 24 -3 35h-81c-10 0 -18 8 -18 18v27c0 10 8 18 18 18h66c-14 44 -31 86 -31 144c0 114 78 201 208 201c93 0 161 -41 188 -123
c5 -14 -4 -30 -19 -34l-44 -11c-14 -3 -27 4 -32 16c-12 32 -38 63 -90 63c-72 0 -102 -51 -102 -112c0 -60 22 -93 36 -144h177c10 0 18 -8 18 -18v-27c0 -10 -8 -18 -18 -18h-167v-18c0 -88 -53 -156 -102 -195v-2z" />
    <glyph glyph-name="currency" unicode="&#xa4;" horiz-adv-x="513" 
d="M398 253l53 -53c7 -7 7 -18 0 -25l-19 -19c-7 -7 -19 -7 -25 0l-54 53c-27 -19 -61 -30 -96 -30c-36 0 -70 11 -97 30l-54 -53c-6 -7 -18 -7 -25 0l-19 19c-7 7 -7 18 0 25l54 53c-20 28 -31 61 -31 97s11 69 31 97l-54 53c-7 7 -7 18 0 25l19 19c7 7 19 7 25 0l54 -53
c27 19 61 30 97 30c35 0 69 -11 96 -30l54 53c6 7 18 7 25 0l19 -19c7 -7 7 -18 0 -25l-53 -53c19 -28 30 -61 30 -97s-11 -69 -30 -97zM257 259c50 0 91 41 91 91s-41 91 -91 91c-51 0 -92 -41 -92 -91s41 -91 92 -91z" />
    <glyph glyph-name="asterisk" unicode="*" horiz-adv-x="455" 
d="M404 558c3 -10 -3 -21 -13 -23l-122 -27l83 -94c7 -8 5 -20 -3 -26l-32 -23c-9 -7 -21 -4 -26 5l-63 107l-64 -107c-5 -9 -17 -12 -26 -5l-32 23c-8 6 -9 18 -3 26l83 94l-122 27c-10 2 -16 13 -13 23l12 37c4 10 15 15 24 11l115 -50l-12 125c-1 10 7 19 18 19h39
c11 0 19 -9 18 -19l-12 -125l115 50c9 4 21 -1 24 -11z" />
    <glyph glyph-name="degree" unicode="&#xb0;" horiz-adv-x="407" 
d="M203 700c85 0 154 -69 154 -153c0 -85 -69 -154 -154 -154c-84 0 -153 69 -153 154c0 84 69 153 153 153zM203 464c46 0 82 37 82 83c0 45 -36 82 -82 82c-45 0 -82 -37 -82 -82c0 -46 37 -83 82 -83z" />
    <glyph glyph-name="numbersign" unicode="#" horiz-adv-x="655" 
d="M597 430c-2 -9 -9 -15 -18 -15h-96l-21 -128h92c11 0 19 -10 17 -21l-5 -35c-2 -9 -9 -15 -18 -15h-97l-25 -149c-2 -13 -13 -22 -26 -22h-30c-11 0 -19 9 -17 20l24 151h-143l-25 -149c-2 -13 -13 -22 -26 -22h-30c-11 0 -19 9 -17 20l24 151h-90c-10 0 -19 9 -17 20
l5 36c2 8 9 15 18 15h96l21 128h-92c-11 0 -19 9 -17 20l5 36c2 8 9 15 18 15h98l24 147c2 13 13 23 26 23h30c11 0 19 -10 18 -21l-25 -149h144l24 147c2 13 13 23 26 23h30c11 0 19 -10 17 -21l-24 -149h89c11 0 20 -10 18 -21zM389 287l21 128h-144l-21 -128h144z" />
    <glyph glyph-name="copyright" unicode="&#xa9;" horiz-adv-x="818" 
d="M416 489c-85 0 -131 -69 -131 -139s46 -139 131 -139c39 0 71 16 93 39c4 5 11 5 17 2l20 -14c7 -4 8 -14 3 -20c-33 -34 -79 -55 -133 -55c-107 0 -184 81 -184 187s77 187 184 187c54 0 100 -21 133 -55c5 -6 4 -16 -3 -20l-20 -14c-6 -3 -13 -2 -17 2
c-22 24 -54 39 -93 39zM409 704c195 0 354 -159 354 -354s-159 -354 -354 -354s-354 159 -354 354s159 354 354 354zM409 49c166 0 301 135 301 301s-135 301 -301 301s-301 -135 -301 -301s135 -301 301 -301z" />
    <glyph glyph-name="registered" unicode="&#xae;" horiz-adv-x="818" 
d="M409 704c195 0 354 -159 354 -354s-159 -354 -354 -354c-196 0 -354 159 -354 354s158 354 354 354zM409 49c165 0 300 135 300 301s-135 301 -300 301c-166 0 -301 -135 -301 -301s135 -301 301 -301zM552 426c0 -49 -29 -89 -79 -106l86 -130c6 -9 0 -21 -11 -21h-24
c-9 0 -17 4 -22 12l-86 131h-78v-125c0 -10 -8 -18 -17 -18h-18c-10 0 -18 8 -18 18v336c0 9 8 17 18 17h115c85 0 134 -50 134 -114zM338 361h80c51 0 79 25 79 65s-28 66 -79 66h-80v-131z" />
    <glyph glyph-name="percent" unicode="%" horiz-adv-x="874" 
d="M617 684c7 10 18 16 30 16h36c11 0 17 -12 11 -21l-438 -663c-6 -10 -17 -16 -29 -16h-36c-11 0 -17 12 -11 21zM378 528c0 -90 -74 -164 -164 -164c-91 0 -164 74 -164 164s73 164 164 164c90 0 164 -74 164 -164zM121 528c0 -51 42 -93 93 -93s92 42 92 93
s-41 93 -92 93s-93 -42 -93 -93zM660 336c91 0 164 -73 164 -164c0 -90 -73 -164 -164 -164c-90 0 -164 74 -164 164c0 91 74 164 164 164zM660 79c51 0 93 42 93 93s-42 93 -93 93s-93 -42 -93 -93s42 -93 93 -93z" />
    <glyph glyph-name="perthousand" unicode="&#x2030;" horiz-adv-x="1284" 
d="M618 684c6 10 18 16 30 16h36c10 0 17 -12 11 -21l-438 -663c-7 -10 -18 -16 -30 -16h-36c-11 0 -17 12 -11 21zM378 528c0 -90 -74 -164 -164 -164s-164 74 -164 164s74 164 164 164s164 -74 164 -164zM121 528c0 -51 42 -93 93 -93s93 42 93 93s-42 93 -93 93
s-93 -42 -93 -93zM661 336c90 0 163 -73 163 -164c0 -90 -73 -164 -163 -164c-91 0 -164 74 -164 164c0 91 73 164 164 164zM661 79c51 0 92 42 92 93s-41 93 -92 93c-52 0 -93 -42 -93 -93s41 -93 93 -93zM1070 336c90 0 164 -73 164 -164c0 -90 -74 -164 -164 -164
c-91 0 -164 74 -164 164c0 91 73 164 164 164zM1070 79c51 0 92 42 92 93s-41 93 -92 93s-93 -42 -93 -93s42 -93 93 -93z" />
    <glyph glyph-name="section" unicode="&#xa7;" horiz-adv-x="568" 
d="M425 153c23 -23 38 -52 38 -91c0 -114 -91 -179 -195 -179c-90 0 -154 37 -181 98c-6 15 2 33 18 37l40 11c11 3 24 -2 30 -13c12 -23 41 -48 90 -48c68 0 98 39 98 78c0 125 -304 75 -304 264c0 62 40 105 82 132c-23 23 -38 53 -38 92c0 114 91 179 195 179
c91 0 155 -38 181 -99c7 -15 -1 -32 -17 -37l-40 -10c-12 -3 -25 2 -30 12c-13 23 -42 49 -91 49c-67 0 -97 -40 -97 -78c0 -126 303 -76 303 -265c0 -62 -40 -105 -82 -132zM304 217c24 -8 47 -17 68 -27c24 15 49 45 49 79c0 60 -80 83 -159 109c-24 9 -47 17 -67 28
c-25 -15 -50 -45 -50 -79c0 -60 81 -84 159 -110z" />
    <glyph glyph-name="ampersand" unicode="&#x26;" horiz-adv-x="737" 
d="M559 155c49 -44 96 -85 132 -116c15 -13 6 -39 -15 -39h-56c-12 0 -25 5 -35 13c-24 21 -54 47 -80 71c-52 -58 -118 -96 -227 -96c-135 0 -244 82 -244 202c0 113 95 174 156 201c-27 42 -52 97 -52 150c0 103 88 172 183 172c110 0 178 -76 178 -161
c0 -105 -90 -146 -175 -180c14 -13 37 -36 52 -50l13 -13c33 -31 67 -62 101 -93c13 26 22 53 27 77c3 14 16 23 30 21l35 -5c16 -2 26 -16 23 -31c-9 -43 -24 -85 -46 -123zM321 632c-44 0 -94 -24 -94 -91c0 -39 21 -83 47 -117c89 33 136 70 136 128c0 39 -31 80 -89 80z
M276 68c76 0 130 30 162 75c-37 33 -74 68 -110 102l-13 12c-26 25 -55 55 -77 78c-86 -30 -115 -86 -115 -145c0 -72 68 -122 153 -122z" />
    <glyph glyph-name="quotedblleft" unicode="&#x201c;" horiz-adv-x="462" 
d="M70 494c-11 7 -15 21 -8 32l100 159c6 11 19 14 30 8l11 -6c10 -6 14 -18 9 -29l-78 -172c-6 -12 -20 -17 -32 -10zM353 685c6 11 20 14 30 8l11 -6c10 -6 14 -18 9 -29l-78 -172c-5 -12 -20 -17 -31 -10l-33 18c-11 7 -14 21 -7 32z" />
    <glyph glyph-name="quotedblright" unicode="&#x201d;" horiz-adv-x="462" 
d="M328 681c6 12 20 17 32 10l32 -18c11 -7 15 -21 8 -31l-100 -160c-6 -10 -19 -14 -30 -8l-11 7c-10 5 -14 18 -9 28zM68 481c-10 5 -14 18 -9 28l78 172c5 12 20 17 31 10l33 -18c11 -7 14 -21 7 -31l-99 -160c-6 -10 -20 -14 -30 -8z" />
    <glyph glyph-name="quotedblbase" unicode="&#x201e;" horiz-adv-x="432" 
d="M298 105c6 12 20 17 32 10l32 -19c11 -6 14 -20 8 -31l-100 -160c-6 -10 -19 -13 -30 -7l-11 6c-10 6 -14 18 -9 29zM38 -96c-10 6 -14 18 -10 29l79 172c5 12 20 17 31 10l32 -19c11 -6 15 -20 8 -31l-99 -160c-7 -10 -20 -13 -30 -7z" />
    <glyph glyph-name="quotesingle" unicode="'" horiz-adv-x="229" 
d="M70 673c0 15 12 27 27 27h36c14 0 26 -12 26 -27v-178c0 -15 -12 -27 -26 -27h-36c-15 0 -27 12 -27 27v178z" />
    <glyph glyph-name="at" unicode="@" horiz-adv-x="936" 
d="M474 729c256 0 403 -174 403 -358c0 -149 -84 -236 -171 -236c-56 0 -90 30 -107 83c-31 -46 -82 -78 -153 -78c-113 0 -186 91 -186 196c0 104 79 196 190 196c66 0 112 -31 142 -72v40c0 13 9 23 22 23h21c12 0 22 -10 22 -23v-194c0 -57 4 -110 55 -110
c61 0 102 75 102 175c0 169 -135 304 -339 305c-193 1 -352 -150 -352 -343c1 -207 160 -337 337 -337c90 0 150 31 182 53c9 7 22 6 30 -3l10 -12c8 -10 6 -25 -5 -33c-48 -32 -118 -58 -217 -58c-234 0 -399 169 -399 391c0 223 164 395 413 395zM465 213
c82 0 123 67 123 123c0 69 -55 122 -123 122c-65 0 -123 -49 -123 -122s53 -123 123 -123z" />
    <glyph glyph-name="bullet" unicode="&#x2022;" horiz-adv-x="317" 
d="M159 414c54 0 98 -44 98 -99c0 -54 -44 -98 -98 -98c-55 0 -99 44 -99 98c0 55 44 99 99 99z" />
    <glyph glyph-name="quotedbl" unicode="&#x22;" horiz-adv-x="403" 
d="M97 468c-15 0 -27 12 -27 27v178c0 15 12 27 27 27h35c15 0 27 -12 27 -27v-178c0 -15 -12 -27 -27 -27h-35zM244 673c0 15 12 27 27 27h35c15 0 27 -12 27 -27v-178c0 -15 -12 -27 -27 -27h-35c-15 0 -27 12 -27 27v178z" />
    <glyph glyph-name="AE" unicode="&#xc6;" horiz-adv-x="935" 
d="M591 91h268c15 0 27 -12 27 -26v-38c0 -15 -12 -27 -27 -27h-342c-15 0 -27 12 -27 27v142h-283l-69 -148c-6 -13 -18 -21 -32 -21h-57c-13 0 -22 14 -16 26l316 649c8 15 23 25 40 25h461c15 0 26 -12 26 -27v-37c0 -15 -11 -27 -26 -27h-259v-201h236
c15 0 27 -12 27 -27v-37c0 -15 -12 -27 -27 -27h-236v-226zM250 260h240v349h-77z" />
    <glyph glyph-name="OE" unicode="&#x152;" horiz-adv-x="936" 
d="M590 91h269c15 0 27 -12 27 -26v-38c0 -15 -12 -27 -27 -27h-440c-237 0 -374 152 -374 350s137 350 374 350h431c14 0 26 -12 26 -27v-37c0 -15 -12 -27 -26 -27h-260v-201h237c15 0 27 -12 27 -27v-37c0 -15 -12 -27 -27 -27h-237v-226zM490 91v518h-71
c-166 0 -273 -102 -273 -259s107 -259 273 -259h71z" />
    <glyph glyph-name="Oslash" unicode="&#xd8;" horiz-adv-x="801" 
d="M691 566c42 -60 66 -134 66 -216c0 -205 -149 -362 -356 -362c-97 0 -181 34 -243 91l-44 -40c-9 -8 -23 -8 -32 1l-18 21c-9 9 -8 23 1 31l46 42c-42 60 -66 134 -66 216c0 205 149 363 356 363c97 0 181 -35 243 -93l45 41c9 8 23 7 31 -2l19 -20c8 -9 7 -23 -2 -31z
M147 350c0 -52 14 -104 39 -147l386 351c-43 40 -100 65 -171 65c-163 0 -254 -133 -254 -269zM401 81c163 0 254 133 254 269c0 52 -14 103 -39 147l-385 -351c42 -40 99 -65 170 -65z" />
    <glyph glyph-name="Thorn" unicode="&#xde;" horiz-adv-x="586" 
d="M294 578c157 0 252 -100 252 -228s-95 -228 -252 -228h-124v-95c0 -15 -12 -27 -27 -27h-46c-15 0 -27 12 -27 27v646c0 15 12 27 27 27h46c15 0 27 -12 27 -27v-95h124zM294 213c94 0 150 55 150 137s-56 137 -150 137h-124v-274h124z" />
    <glyph glyph-name="ae" unicode="&#xe6;" horiz-adv-x="1035" 
d="M752 519c130 0 252 -102 247 -270c-1 -19 -17 -35 -36 -35h-370c14 -83 75 -140 175 -140c47 0 90 16 119 43c9 8 22 9 32 2l31 -19c14 -9 17 -29 5 -41c-45 -46 -111 -71 -187 -71c-88 0 -158 32 -205 85v-46c0 -15 -12 -27 -27 -27h-38c-15 0 -27 12 -27 27v44
c-37 -47 -96 -83 -184 -83c-158 0 -252 133 -252 265c0 133 94 266 252 266c88 0 147 -36 184 -83v44c0 15 12 27 27 27h38c15 0 27 -12 27 -27v-45c45 52 112 84 189 84zM296 74c112 0 175 79 175 179c0 101 -63 180 -175 180c-105 0 -168 -77 -168 -180
c0 -102 63 -179 168 -179zM593 293h310c-12 85 -65 140 -151 140c-87 0 -146 -56 -159 -140z" />
    <glyph glyph-name="oe" unicode="&#x153;" horiz-adv-x="995" 
d="M720 519c129 0 245 -102 239 -270c-1 -19 -16 -35 -36 -35h-361c13 -80 67 -140 166 -140c47 0 90 16 119 43c9 8 22 9 32 2l31 -19c14 -9 17 -29 5 -41c-45 -46 -110 -71 -187 -71c-102 0 -174 44 -214 111c-45 -67 -120 -111 -213 -111c-153 0 -266 119 -266 265
c0 147 113 266 266 266c94 0 170 -45 214 -113c42 68 113 113 205 113zM301 74c100 0 173 76 173 179c0 104 -73 180 -173 180c-99 0 -172 -76 -172 -180c0 -103 73 -179 172 -179zM562 293h302c-11 85 -58 140 -144 140c-87 0 -145 -56 -158 -140z" />
    <glyph glyph-name="eth" unicode="&#xf0;" horiz-adv-x="591" 
d="M385 614c93 -91 171 -216 171 -371c0 -150 -101 -255 -260 -255c-153 0 -261 101 -261 246s117 237 252 237c58 0 110 -21 132 -39h1c-22 47 -64 98 -113 143l-116 -56c-9 -5 -20 -1 -24 8l-8 16c-4 9 0 19 8 24l95 46c-28 22 -58 41 -87 56c-12 6 -13 22 -2 30l28 19
c14 9 33 10 48 1c30 -18 62 -41 93 -67l99 48c9 5 20 1 24 -8l8 -16c4 -9 0 -19 -8 -24zM296 74c111 0 166 78 166 160c0 94 -68 160 -166 160c-112 0 -167 -78 -167 -160s55 -160 167 -160z" />
    <glyph glyph-name="oslash" unicode="&#xf8;" horiz-adv-x="602" 
d="M516 413c32 -45 51 -100 51 -160c0 -146 -113 -265 -266 -265c-70 0 -132 25 -178 66l-37 -33c-8 -7 -19 -6 -26 1l-12 13c-6 7 -6 19 2 25l37 34c-33 45 -52 100 -52 159c0 147 113 266 266 266c71 0 132 -25 179 -67l37 34c7 7 18 6 25 -1l12 -13c7 -7 6 -19 -1 -25z
M129 253c0 -36 9 -70 25 -97l260 236c-30 26 -69 41 -113 41c-100 0 -172 -76 -172 -180zM301 74c100 0 173 76 173 179c0 37 -10 71 -26 98l-260 -237c30 -25 69 -40 113 -40z" />
    <glyph glyph-name="quoteright" unicode="&#x2019;" horiz-adv-x="270" 
d="M68 481c-10 5 -14 18 -9 28l78 172c5 12 20 17 31 10l33 -18c11 -7 14 -21 7 -31l-99 -160c-6 -10 -20 -14 -30 -8z" />
    <glyph glyph-name="quoteleft" unicode="&#x2018;" horiz-adv-x="271" 
d="M70 494c-11 7 -15 21 -8 32l100 159c6 11 19 14 30 8l11 -6c10 -6 14 -18 9 -29l-78 -172c-6 -12 -20 -17 -32 -10z" />
    <glyph glyph-name="quotesinglbase" unicode="&#x201a;" horiz-adv-x="240" 
d="M38 -96c-10 6 -14 18 -10 29l79 172c5 12 20 17 31 10l32 -19c11 -6 15 -20 8 -31l-99 -160c-7 -10 -20 -13 -30 -7z" />
    <glyph glyph-name="thorn" unicode="&#xfe;" 
d="M341 519c158 0 253 -133 253 -266c0 -132 -95 -265 -253 -265c-88 0 -146 36 -184 83v-237c0 -15 -12 -27 -27 -27h-38c-14 0 -26 12 -26 27v839c0 15 12 27 26 27h38c15 0 27 -12 27 -27v-237c38 47 96 83 184 83zM332 74c105 0 168 77 168 179c0 103 -63 180 -168 180
c-111 0 -175 -79 -175 -180c0 -100 64 -179 175 -179z" />
    <glyph glyph-name="germandbls" unicode="&#xdf;" horiz-adv-x="579" 
d="M407 378c85 -26 137 -86 137 -175c0 -122 -92 -224 -252 -206c-11 2 -19 11 -19 22v39c0 13 10 23 23 23c100 -5 154 47 154 123c0 86 -69 116 -148 116h-12c-9 0 -17 8 -17 18v48c0 9 7 17 16 17c73 6 105 52 105 115c0 58 -36 108 -115 108c-74 0 -122 -54 -122 -144
v-455c0 -15 -12 -27 -27 -27h-38c-15 0 -27 12 -27 27v471c0 127 98 215 214 215c132 0 211 -84 211 -188c0 -65 -31 -116 -83 -147z" />
    <glyph glyph-name="cedilla" unicode="&#xb8;" horiz-adv-x="349" 
d="M164 -49c61 6 116 -22 116 -94c0 -61 -48 -108 -123 -108c-26 0 -50 5 -69 13c-10 4 -14 16 -9 25l14 25c4 8 13 11 21 8c10 -3 23 -6 37 -6c41 0 64 20 64 51c0 28 -18 45 -50 45c-11 0 -23 -3 -32 -6c-7 -3 -15 0 -20 6l-8 11c-4 5 -5 12 -2 19l23 45c4 9 14 15 24 15
h24c7 0 11 -7 8 -13z" />
    <glyph glyph-name="tilde" unicode="&#x2dc;" horiz-adv-x="443" 
d="M330 682l25 -4c10 -2 16 -12 14 -22c-11 -48 -38 -73 -82 -73c-49 0 -84 33 -122 33c-18 0 -28 -13 -32 -26c-3 -8 -12 -13 -20 -12l-25 5c-11 2 -17 12 -15 21c13 50 40 73 82 73c45 0 82 -33 121 -33c21 0 30 13 34 26c2 8 11 14 20 12z" />
    <glyph glyph-name="grave" unicode="`" horiz-adv-x="304" 
d="M146 727c14 0 26 -8 32 -20l47 -101c4 -9 -2 -19 -12 -19h-32c-9 0 -17 4 -22 12l-70 100c-8 12 0 28 15 28h42z" />
    <glyph glyph-name="acute" unicode="&#xb4;" horiz-adv-x="304" 
d="M158 727h42c15 0 23 -16 15 -28l-70 -100c-5 -8 -13 -12 -22 -12h-32c-9 0 -16 10 -12 19l47 101c6 12 19 20 32 20z" />
    <glyph glyph-name="circumflex" unicode="&#x2c6;" horiz-adv-x="447" 
d="M360 609c7 -9 1 -22 -10 -22h-41c-11 0 -22 5 -28 15l-57 78l-57 -78c-7 -10 -18 -15 -29 -15h-40c-11 0 -18 13 -11 22l83 104c6 9 17 14 28 14h52c11 0 21 -5 28 -14z" />
    <glyph glyph-name="Ccedilla" unicode="&#xc7;" horiz-adv-x="704" 
d="M401 81c76 0 137 29 180 74c9 10 23 12 34 4l38 -25c14 -9 16 -29 5 -41c-63 -65 -152 -105 -256 -105l-19 -38c61 6 116 -21 116 -93c0 -61 -48 -108 -123 -108c-26 0 -50 5 -69 13c-10 3 -14 15 -9 25l14 25c4 7 13 11 21 8c10 -4 23 -7 37 -7c41 0 65 21 65 52
c0 28 -19 44 -51 44c-11 0 -23 -2 -32 -6c-7 -2 -15 0 -20 6l-8 11c-4 6 -5 13 -2 19l26 52c-179 24 -303 172 -303 359c0 205 149 363 356 363c104 0 194 -40 257 -106c11 -12 9 -32 -5 -41l-38 -25c-11 -7 -25 -5 -34 4c-43 45 -104 74 -180 74
c-163 0 -254 -133 -254 -269s91 -269 254 -269z" />
    <glyph glyph-name="macron" unicode="&#xaf;" horiz-adv-x="413" 
d="M70 661c0 10 8 18 18 18h237c10 0 18 -8 18 -18v-35c0 -10 -8 -18 -18 -18h-237c-10 0 -18 8 -18 18v35z" />
    <glyph glyph-name="dieresis" unicode="&#xa8;" horiz-adv-x="453" 
d="M127 705c32 0 58 -25 58 -57s-26 -58 -58 -58s-57 26 -57 58s25 57 57 57zM325 705c32 0 58 -25 58 -57s-26 -58 -58 -58c-31 0 -57 26 -57 58s26 57 57 57z" />
    <glyph glyph-name="ccedilla" unicode="&#xe7;" horiz-adv-x="546" 
d="M301 74c56 0 104 24 134 63c8 10 23 13 34 7l31 -17c14 -8 18 -27 8 -40c-47 -60 -120 -99 -207 -99h-4l-19 -38c61 6 116 -21 116 -93c0 -61 -48 -108 -123 -108c-26 0 -50 5 -69 13c-10 3 -14 15 -9 25l14 25c4 7 13 11 22 8c9 -4 22 -7 36 -7c41 0 65 21 65 52
c0 28 -19 44 -51 44c-11 0 -23 -2 -32 -6c-7 -2 -15 0 -20 6l-8 11c-4 6 -5 13 -2 19l27 54c-123 26 -209 133 -209 260c0 147 113 266 266 266c87 0 160 -39 207 -99c10 -13 6 -32 -8 -40l-31 -17c-11 -6 -26 -3 -34 7c-30 39 -78 63 -134 63c-100 0 -172 -76 -172 -180
c0 -103 72 -179 172 -179z" />
    <glyph glyph-name="space" unicode=" " horiz-adv-x="270" 
 />
    <glyph glyph-name="Aacute" unicode="&#xc1;" horiz-adv-x="674" 
d="M571 0c-16 0 -29 10 -34 24l-51 145h-300l-51 -145c-5 -14 -18 -24 -33 -24h-58c-12 0 -21 12 -16 24l243 653c5 14 18 23 33 23h64c15 0 28 -9 33 -23l244 -653c4 -12 -5 -24 -17 -24h-57zM219 260h235l-118 333zM403 927h42c15 0 23 -16 15 -28l-70 -100
c-5 -8 -13 -12 -22 -12h-32c-9 0 -16 10 -12 19l47 101c6 12 19 20 32 20z" />
    <glyph glyph-name="Acircumflex" unicode="&#xc2;" horiz-adv-x="674" 
d="M571 0c-16 0 -29 10 -34 24l-51 145h-300l-51 -145c-5 -14 -18 -24 -33 -24h-58c-12 0 -21 12 -16 24l243 653c5 14 18 23 33 23h64c15 0 28 -9 33 -23l244 -653c4 -12 -5 -24 -17 -24h-57zM219 260h235l-118 333zM474 809c7 -9 1 -22 -10 -22h-41c-11 0 -22 5 -28 15
l-57 78l-57 -78c-7 -10 -18 -15 -29 -15h-40c-11 0 -18 13 -11 22l83 104c6 9 17 14 28 14h52c11 0 21 -5 28 -14z" />
    <glyph glyph-name="Agrave" unicode="&#xc0;" horiz-adv-x="674" 
d="M571 0c-16 0 -29 10 -34 24l-51 145h-300l-51 -145c-5 -14 -18 -24 -33 -24h-58c-12 0 -21 12 -16 24l243 653c5 14 18 23 33 23h64c15 0 28 -9 33 -23l244 -653c4 -12 -5 -24 -17 -24h-57zM219 260h235l-118 333zM281 927c14 0 26 -8 32 -20l47 -101
c4 -9 -2 -19 -12 -19h-32c-9 0 -17 4 -22 12l-70 100c-8 12 0 28 15 28h42z" />
    <glyph glyph-name="Adieresis" unicode="&#xc4;" horiz-adv-x="674" 
d="M571 0c-16 0 -29 10 -34 24l-51 145h-300l-51 -145c-5 -14 -18 -24 -33 -24h-58c-12 0 -21 12 -16 24l243 653c5 14 18 23 33 23h64c15 0 28 -9 33 -23l244 -653c4 -12 -5 -24 -17 -24h-57zM219 260h235l-118 333zM238 905c32 0 58 -25 58 -57s-26 -58 -58 -58
s-57 26 -57 58s25 57 57 57zM436 905c32 0 58 -25 58 -57s-26 -58 -58 -58c-31 0 -57 26 -57 58s26 57 57 57z" />
    <glyph glyph-name="Aring" unicode="&#xc5;" horiz-adv-x="674" 
d="M571 0c-16 0 -29 10 -34 24l-51 145h-300l-51 -145c-5 -14 -18 -24 -33 -24h-58c-12 0 -21 12 -16 24l243 653c5 14 18 23 33 23h64c15 0 28 -9 33 -23l244 -653c4 -12 -5 -24 -17 -24h-57zM219 260h235l-118 333zM337 966c61 0 109 -49 109 -109s-48 -109 -109 -109
c-60 0 -109 49 -109 109s49 109 109 109zM337 801c31 0 56 25 56 56c0 30 -25 55 -56 55c-30 0 -55 -25 -55 -55c0 -31 25 -56 55 -56z" />
    <glyph glyph-name="Atilde" unicode="&#xc3;" horiz-adv-x="674" 
d="M571 0c-16 0 -29 10 -34 24l-51 145h-300l-51 -145c-5 -14 -18 -24 -33 -24h-58c-12 0 -21 12 -16 24l243 653c5 14 18 23 33 23h64c15 0 28 -9 33 -23l244 -653c4 -12 -5 -24 -17 -24h-57zM219 260h235l-118 333zM446 882l25 -4c10 -2 16 -12 14 -22
c-11 -48 -38 -73 -82 -73c-49 0 -84 33 -122 33c-18 0 -28 -13 -32 -26c-3 -8 -12 -13 -20 -12l-25 5c-11 2 -17 12 -15 21c13 50 40 73 82 73c45 0 82 -33 121 -33c21 0 30 13 34 26c2 8 11 14 20 12z" />
    <glyph glyph-name="Scaron" unicode="&#x160;" horiz-adv-x="559" 
d="M332 389c136 -32 197 -81 197 -194c0 -98 -67 -207 -247 -207c-97 0 -198 39 -241 130c-7 14 1 31 17 36l47 15c12 4 26 -1 32 -13c19 -39 68 -74 147 -74c76 0 143 33 143 105c0 95 -85 99 -196 126c-141 34 -173 108 -173 199c0 118 101 201 231 201
c90 0 166 -44 201 -122c7 -15 -2 -33 -18 -37l-47 -11c-12 -3 -24 3 -30 14c-20 38 -61 69 -137 62c-55 -6 -99 -51 -100 -107c0 -89 85 -103 174 -123zM143 905c-7 9 0 22 11 22h40c11 0 22 -5 29 -15l57 -78l57 78c6 10 17 15 29 15h40c11 0 17 -13 10 -22l-82 -104
c-7 -9 -17 -14 -28 -14h-52c-11 0 -22 5 -28 14z" />
    <glyph glyph-name="Cacute" unicode="&#x106;" horiz-adv-x="704" 
d="M401 81c76 0 137 29 180 74c9 10 23 12 34 4l38 -25c14 -9 17 -29 5 -41c-63 -65 -153 -105 -257 -105c-207 0 -356 157 -356 362s149 363 356 363c104 0 194 -40 257 -106c12 -12 9 -32 -5 -41l-38 -25c-11 -7 -25 -5 -34 4c-43 45 -104 74 -180 74
c-163 0 -254 -133 -254 -269s91 -269 254 -269zM428 927h42c15 0 23 -16 15 -28l-70 -100c-5 -8 -13 -12 -22 -12h-32c-9 0 -16 10 -12 19l47 101c6 12 19 20 32 20z" />
    <glyph glyph-name="Eacute" unicode="&#xc9;" horiz-adv-x="516" 
d="M170 91h268c15 0 27 -12 27 -26v-38c0 -15 -12 -27 -27 -27h-342c-14 0 -26 12 -26 27v646c0 15 12 27 26 27h333c15 0 27 -12 27 -27v-37c0 -15 -12 -27 -27 -27h-259v-201h236c15 0 27 -12 27 -27v-37c0 -15 -12 -27 -27 -27h-236v-226zM314 927h42c15 0 23 -16 15 -28
l-70 -100c-5 -8 -13 -12 -22 -12h-32c-9 0 -16 10 -12 19l47 101c6 12 19 20 32 20z" />
    <glyph glyph-name="Ecircumflex" unicode="&#xca;" horiz-adv-x="516" 
d="M170 91h268c15 0 27 -12 27 -26v-38c0 -15 -12 -27 -27 -27h-342c-14 0 -26 12 -26 27v646c0 15 12 27 26 27h333c15 0 27 -12 27 -27v-37c0 -15 -12 -27 -27 -27h-259v-201h236c15 0 27 -12 27 -27v-37c0 -15 -12 -27 -27 -27h-236v-226zM405 809c7 -9 1 -22 -10 -22
h-41c-11 0 -22 5 -28 15l-57 78l-57 -78c-7 -10 -18 -15 -29 -15h-40c-11 0 -18 13 -11 22l83 104c6 9 17 14 28 14h52c11 0 21 -5 28 -14z" />
    <glyph glyph-name="Edieresis" unicode="&#xcb;" horiz-adv-x="516" 
d="M170 91h268c15 0 27 -12 27 -26v-38c0 -15 -12 -27 -27 -27h-342c-14 0 -26 12 -26 27v646c0 15 12 27 26 27h333c15 0 27 -12 27 -27v-37c0 -15 -12 -27 -27 -27h-259v-201h236c15 0 27 -12 27 -27v-37c0 -15 -12 -27 -27 -27h-236v-226zM169 905c32 0 58 -25 58 -57
s-26 -58 -58 -58s-57 26 -57 58s25 57 57 57zM367 905c32 0 58 -25 58 -57s-26 -58 -58 -58c-31 0 -57 26 -57 58s26 57 57 57z" />
    <glyph glyph-name="Egrave" unicode="&#xc8;" horiz-adv-x="516" 
d="M170 91h268c15 0 27 -12 27 -26v-38c0 -15 -12 -27 -27 -27h-342c-14 0 -26 12 -26 27v646c0 15 12 27 26 27h333c15 0 27 -12 27 -27v-37c0 -15 -12 -27 -27 -27h-259v-201h236c15 0 27 -12 27 -27v-37c0 -15 -12 -27 -27 -27h-236v-226zM222 927c14 0 26 -8 32 -20
l47 -101c4 -9 -2 -19 -12 -19h-32c-9 0 -17 4 -22 12l-70 100c-8 12 0 28 15 28h42z" />
    <glyph glyph-name="Iacute" unicode="&#xcd;" horiz-adv-x="240" 
d="M70 673c0 15 12 27 27 27h47c15 0 27 -12 27 -27v-646c0 -15 -12 -27 -27 -27h-47c-15 0 -27 12 -27 27v646zM176 927h42c15 0 23 -16 15 -28l-70 -100c-5 -8 -13 -12 -22 -12h-32c-9 0 -16 10 -12 19l47 101c6 12 19 20 32 20z" />
    <glyph glyph-name="Icircumflex" unicode="&#xce;" horiz-adv-x="240" 
d="M70 673c0 15 12 27 27 27h47c15 0 27 -12 27 -27v-646c0 -15 -12 -27 -27 -27h-47c-15 0 -27 12 -27 27v646zM257 809c7 -9 1 -22 -10 -22h-41c-11 0 -22 5 -28 15l-57 78l-57 -78c-7 -10 -18 -15 -29 -15h-40c-11 0 -18 13 -11 22l83 104c6 9 17 14 28 14h52
c11 0 21 -5 28 -14z" />
    <glyph glyph-name="Idieresis" unicode="&#xcf;" horiz-adv-x="240" 
d="M70 673c0 15 12 27 27 27h47c15 0 27 -12 27 -27v-646c0 -15 -12 -27 -27 -27h-47c-15 0 -27 12 -27 27v646zM21 905c32 0 58 -25 58 -57s-26 -58 -58 -58s-57 26 -57 58s25 57 57 57zM219 905c32 0 58 -25 58 -57s-26 -58 -58 -58c-31 0 -57 26 -57 58s26 57 57 57z" />
    <glyph glyph-name="Igrave" unicode="&#xcc;" horiz-adv-x="240" 
d="M70 673c0 15 12 27 27 27h47c15 0 27 -12 27 -27v-646c0 -15 -12 -27 -27 -27h-47c-15 0 -27 12 -27 27v646zM64 927c14 0 26 -8 32 -20l47 -101c4 -9 -2 -19 -12 -19h-32c-9 0 -17 4 -22 12l-70 100c-8 12 0 28 15 28h42z" />
    <glyph glyph-name="Ntilde" unicode="&#xd1;" horiz-adv-x="690" 
d="M520 673c0 15 12 27 27 27h47c14 0 26 -12 26 -27v-646c0 -15 -12 -27 -26 -27h-38c-14 0 -28 7 -36 19l-350 497v-489c0 -15 -12 -27 -26 -27h-47c-15 0 -27 12 -27 27v646c0 15 12 27 27 27h37c15 0 28 -7 37 -19l349 -496v488zM454 882l25 -4c10 -2 16 -12 14 -22
c-11 -48 -38 -73 -82 -73c-49 0 -84 33 -122 33c-18 0 -28 -13 -32 -26c-3 -8 -12 -13 -20 -12l-25 5c-11 2 -17 12 -15 21c13 50 40 73 82 73c45 0 82 -33 121 -33c21 0 30 13 34 26c2 8 11 14 20 12z" />
    <glyph glyph-name="Oacute" unicode="&#xd3;" horiz-adv-x="801" 
d="M401 712c207 0 355 -157 355 -362s-148 -363 -355 -363c-208 0 -356 158 -356 363s148 362 356 362zM401 81c163 0 254 133 254 269s-91 269 -254 269s-254 -133 -254 -269s91 -269 254 -269zM446 927h42c15 0 23 -16 15 -28l-70 -100c-5 -8 -13 -12 -22 -12h-32
c-9 0 -16 10 -12 19l47 101c6 12 19 20 32 20z" />
    <glyph glyph-name="Ocircumflex" unicode="&#xd4;" horiz-adv-x="801" 
d="M401 712c207 0 355 -157 355 -362s-148 -363 -355 -363c-208 0 -356 158 -356 363s148 362 356 362zM401 81c163 0 254 133 254 269s-91 269 -254 269s-254 -133 -254 -269s91 -269 254 -269zM537 809c7 -9 1 -22 -10 -22h-41c-11 0 -22 5 -28 15l-57 78l-57 -78
c-7 -10 -18 -15 -29 -15h-40c-11 0 -18 13 -11 22l83 104c6 9 17 14 28 14h52c11 0 21 -5 28 -14z" />
    <glyph glyph-name="Odieresis" unicode="&#xd6;" horiz-adv-x="801" 
d="M401 712c207 0 355 -157 355 -362s-148 -363 -355 -363c-208 0 -356 158 -356 363s148 362 356 362zM401 81c163 0 254 133 254 269s-91 269 -254 269s-254 -133 -254 -269s91 -269 254 -269zM301 905c32 0 58 -25 58 -57s-26 -58 -58 -58s-57 26 -57 58s25 57 57 57z
M499 905c32 0 58 -25 58 -57s-26 -58 -58 -58c-31 0 -57 26 -57 58s26 57 57 57z" />
    <glyph glyph-name="Ograve" unicode="&#xd2;" horiz-adv-x="801" 
d="M401 712c207 0 355 -157 355 -362s-148 -363 -355 -363c-208 0 -356 158 -356 363s148 362 356 362zM401 81c163 0 254 133 254 269s-91 269 -254 269s-254 -133 -254 -269s91 -269 254 -269zM354 927c14 0 26 -8 32 -20l47 -101c4 -9 -2 -19 -12 -19h-32
c-9 0 -17 4 -22 12l-70 100c-8 12 0 28 15 28h42z" />
    <glyph glyph-name="Otilde" unicode="&#xd5;" horiz-adv-x="801" 
d="M401 712c207 0 355 -157 355 -362s-148 -363 -355 -363c-208 0 -356 158 -356 363s148 362 356 362zM401 81c163 0 254 133 254 269s-91 269 -254 269s-254 -133 -254 -269s91 -269 254 -269zM509 882l25 -4c10 -2 16 -12 14 -22c-11 -48 -38 -73 -82 -73
c-49 0 -84 33 -122 33c-18 0 -28 -13 -32 -26c-3 -8 -12 -13 -20 -12l-25 5c-11 2 -17 12 -15 21c13 50 40 73 82 73c45 0 82 -33 121 -33c21 0 30 13 34 26c2 8 11 14 20 12z" />
    <glyph glyph-name="Sacute" unicode="&#x15a;" horiz-adv-x="559" 
d="M332 389c136 -32 197 -81 197 -194c0 -98 -67 -207 -247 -207c-97 0 -198 39 -241 130c-7 14 1 31 17 36l47 15c12 4 26 -1 32 -13c19 -39 68 -74 147 -74c76 0 143 33 143 105c0 95 -85 99 -196 126c-141 34 -173 108 -173 199c0 118 101 201 231 201
c90 0 166 -44 201 -122c7 -15 -2 -33 -18 -37l-47 -11c-12 -3 -24 3 -30 14c-20 38 -61 69 -137 62c-55 -6 -99 -51 -100 -107c0 -89 85 -103 174 -123zM325 927h42c15 0 23 -16 15 -28l-70 -100c-5 -8 -13 -12 -22 -12h-32c-9 0 -16 10 -12 19l47 101c6 12 19 20 32 20z
" />
    <glyph glyph-name="Scircumflex" unicode="&#x15c;" horiz-adv-x="558" 
d="M332 389c136 -32 197 -81 197 -194c0 -98 -67 -207 -247 -207c-97 0 -198 39 -241 130c-7 14 1 31 17 36l47 15c12 4 26 -1 32 -13c19 -39 68 -74 147 -74c76 0 143 33 143 105c0 95 -85 99 -196 126c-141 34 -173 108 -173 199c0 118 101 201 231 201
c90 0 166 -44 201 -122c7 -15 -2 -33 -18 -37l-47 -11c-12 -3 -24 3 -30 14c-20 38 -61 69 -137 62c-55 -6 -99 -51 -100 -107c0 -89 85 -103 174 -123zM416 809c7 -9 1 -22 -10 -22h-41c-11 0 -22 5 -28 15l-57 78l-57 -78c-7 -10 -18 -15 -29 -15h-40c-11 0 -18 13 -11 22
l83 104c6 9 17 14 28 14h52c11 0 21 -5 28 -14z" />
    <glyph glyph-name="Uacute" unicode="&#xda;" horiz-adv-x="672" 
d="M529 700h46c15 0 27 -12 27 -27v-407c0 -182 -95 -278 -266 -278c-170 0 -266 96 -266 278v407c0 15 12 27 27 27h47c15 0 27 -12 27 -27v-389c0 -149 65 -202 165 -202c101 0 166 53 166 202v389c0 15 12 27 27 27zM382 927h42c15 0 23 -16 15 -28l-70 -100
c-5 -8 -13 -12 -22 -12h-32c-9 0 -16 10 -12 19l47 101c6 12 19 20 32 20z" />
    <glyph glyph-name="Ucircumflex" unicode="&#xdb;" horiz-adv-x="672" 
d="M529 700h46c15 0 27 -12 27 -27v-407c0 -182 -95 -278 -266 -278c-170 0 -266 96 -266 278v407c0 15 12 27 27 27h47c15 0 27 -12 27 -27v-389c0 -149 65 -202 165 -202c101 0 166 53 166 202v389c0 15 12 27 27 27zM472 809c7 -9 1 -22 -10 -22h-41c-11 0 -22 5 -28 15
l-57 78l-57 -78c-7 -10 -18 -15 -29 -15h-40c-11 0 -18 13 -11 22l83 104c6 9 17 14 28 14h52c11 0 21 -5 28 -14z" />
    <glyph glyph-name="Udieresis" unicode="&#xdc;" horiz-adv-x="672" 
d="M529 700h46c15 0 27 -12 27 -27v-407c0 -182 -95 -278 -266 -278c-170 0 -266 96 -266 278v407c0 15 12 27 27 27h47c15 0 27 -12 27 -27v-389c0 -149 65 -202 165 -202c101 0 166 53 166 202v389c0 15 12 27 27 27zM237 905c32 0 58 -25 58 -57s-26 -58 -58 -58
s-57 26 -57 58s25 57 57 57zM435 905c32 0 58 -25 58 -57s-26 -58 -58 -58c-31 0 -57 26 -57 58s26 57 57 57z" />
    <glyph glyph-name="Ugrave" unicode="&#xd9;" horiz-adv-x="672" 
d="M529 700h46c15 0 27 -12 27 -27v-407c0 -182 -95 -278 -266 -278c-170 0 -266 96 -266 278v407c0 15 12 27 27 27h47c15 0 27 -12 27 -27v-389c0 -149 65 -202 165 -202c101 0 166 53 166 202v389c0 15 12 27 27 27zM300 927c14 0 26 -8 32 -20l47 -101
c4 -9 -2 -19 -12 -19h-32c-9 0 -17 4 -22 12l-70 100c-8 12 0 28 15 28h42z" />
    <glyph glyph-name="Yacute" unicode="&#xdd;" horiz-adv-x="662" 
d="M611 700c14 0 22 -15 15 -27l-245 -411v-235c0 -15 -12 -27 -27 -27h-46c-15 0 -27 12 -27 27v235l-245 411c-7 12 1 27 15 27h56c16 0 31 -8 38 -22l186 -326l186 326c8 14 22 22 38 22h56zM387 927h42c15 0 23 -16 15 -28l-70 -100c-5 -8 -13 -12 -22 -12h-32
c-9 0 -16 10 -12 19l47 101c6 12 19 20 32 20z" />
    <glyph glyph-name="Ydieresis" unicode="&#x178;" horiz-adv-x="662" 
d="M611 700c14 0 22 -15 15 -27l-245 -411v-235c0 -15 -12 -27 -27 -27h-46c-15 0 -27 12 -27 27v235l-245 411c-7 12 1 27 15 27h56c16 0 31 -8 38 -22l186 -326l186 326c8 14 22 22 38 22h56zM232 905c32 0 58 -25 58 -57s-26 -58 -58 -58s-57 26 -57 58s25 57 57 57z
M430 905c32 0 58 -25 58 -57s-26 -58 -58 -58c-31 0 -57 26 -57 58s26 57 57 57z" />
    <glyph glyph-name="Zcaron" unicode="&#x17d;" horiz-adv-x="574" 
d="M170 91h337c15 0 27 -12 27 -26v-38c0 -15 -12 -27 -27 -27h-440c-15 0 -27 12 -27 27v27c0 13 4 25 11 35l353 520h-319c-15 0 -27 12 -27 27v37c0 15 12 27 27 27h413c15 0 27 -12 27 -27v-28c0 -12 -3 -24 -10 -34zM151 905c-7 9 0 22 11 22h40c11 0 22 -5 29 -15
l57 -78l57 78c6 10 17 15 29 15h40c11 0 17 -13 10 -22l-82 -104c-7 -9 -17 -14 -28 -14h-52c-11 0 -22 5 -28 14z" />
    <glyph glyph-name="aacute" unicode="&#xe1;" 
d="M471 480c0 15 12 27 27 27h38c15 0 27 -12 27 -27v-453c0 -15 -12 -27 -27 -27h-38c-15 0 -27 12 -27 27v44c-37 -47 -96 -83 -184 -83c-158 0 -252 133 -252 265c0 133 94 266 252 266c88 0 147 -36 184 -83v44zM296 74c112 0 175 79 175 179c0 101 -63 180 -175 180
c-105 0 -168 -77 -168 -180c0 -102 63 -179 168 -179zM360 727h42c15 0 23 -16 15 -28l-70 -100c-5 -8 -13 -12 -22 -12h-32c-9 0 -16 10 -12 19l47 101c6 12 19 20 32 20z" />
    <glyph glyph-name="acircumflex" unicode="&#xe2;" 
d="M471 480c0 15 12 27 27 27h38c15 0 27 -12 27 -27v-453c0 -15 -12 -27 -27 -27h-38c-15 0 -27 12 -27 27v44c-37 -47 -96 -83 -184 -83c-158 0 -252 133 -252 265c0 133 94 266 252 266c88 0 147 -36 184 -83v44zM296 74c112 0 175 79 175 179c0 101 -63 180 -175 180
c-105 0 -168 -77 -168 -180c0 -102 63 -179 168 -179zM441 609c7 -9 1 -22 -10 -22h-41c-11 0 -22 5 -28 15l-57 78l-57 -78c-7 -10 -18 -15 -29 -15h-40c-11 0 -18 13 -11 22l83 104c6 9 17 14 28 14h52c11 0 21 -5 28 -14z" />
    <glyph glyph-name="adieresis" unicode="&#xe4;" 
d="M471 480c0 15 12 27 27 27h38c15 0 27 -12 27 -27v-453c0 -15 -12 -27 -27 -27h-38c-15 0 -27 12 -27 27v44c-37 -47 -96 -83 -184 -83c-158 0 -252 133 -252 265c0 133 94 266 252 266c88 0 147 -36 184 -83v44zM296 74c112 0 175 79 175 179c0 101 -63 180 -175 180
c-105 0 -168 -77 -168 -180c0 -102 63 -179 168 -179zM205 705c32 0 58 -25 58 -57s-26 -58 -58 -58s-57 26 -57 58s25 57 57 57zM403 705c32 0 58 -25 58 -57s-26 -58 -58 -58c-31 0 -57 26 -57 58s26 57 57 57z" />
    <glyph glyph-name="agrave" unicode="&#xe0;" 
d="M471 480c0 15 12 27 27 27h38c15 0 27 -12 27 -27v-453c0 -15 -12 -27 -27 -27h-38c-15 0 -27 12 -27 27v44c-37 -47 -96 -83 -184 -83c-158 0 -252 133 -252 265c0 133 94 266 252 266c88 0 147 -36 184 -83v44zM296 74c112 0 175 79 175 179c0 101 -63 180 -175 180
c-105 0 -168 -77 -168 -180c0 -102 63 -179 168 -179zM278 727c14 0 26 -8 32 -20l47 -101c4 -9 -2 -19 -12 -19h-32c-9 0 -17 4 -22 12l-70 100c-8 12 0 28 15 28h42z" />
    <glyph glyph-name="aring" unicode="&#xe5;" 
d="M471 480c0 15 12 27 27 27h38c15 0 27 -12 27 -27v-453c0 -15 -12 -27 -27 -27h-38c-15 0 -27 12 -27 27v44c-37 -47 -96 -83 -184 -83c-158 0 -252 133 -252 265c0 133 94 266 252 266c88 0 147 -36 184 -83v44zM296 74c112 0 175 79 175 179c0 101 -63 180 -175 180
c-105 0 -168 -77 -168 -180c0 -102 63 -179 168 -179zM314 776c61 0 109 -49 109 -109s-48 -109 -109 -109c-60 0 -109 49 -109 109s49 109 109 109zM314 611c31 0 56 25 56 56c0 30 -25 55 -56 55c-30 0 -55 -25 -55 -55c0 -31 25 -56 55 -56z" />
    <glyph glyph-name="atilde" unicode="&#xe3;" 
d="M471 480c0 15 12 27 27 27h38c15 0 27 -12 27 -27v-453c0 -15 -12 -27 -27 -27h-38c-15 0 -27 12 -27 27v44c-37 -47 -96 -83 -184 -83c-158 0 -252 133 -252 265c0 133 94 266 252 266c88 0 147 -36 184 -83v44zM296 74c112 0 175 79 175 179c0 101 -63 180 -175 180
c-105 0 -168 -77 -168 -180c0 -102 63 -179 168 -179zM413 682l25 -4c10 -2 16 -12 14 -22c-11 -48 -38 -73 -82 -73c-49 0 -84 33 -122 33c-18 0 -28 -13 -32 -26c-3 -8 -12 -13 -20 -12l-25 5c-11 2 -17 12 -15 21c13 50 40 73 82 73c45 0 82 -33 121 -33
c21 0 30 13 34 26c2 8 11 14 20 12z" />
    <glyph glyph-name="eacute" unicode="&#xe9;" horiz-adv-x="573" 
d="M291 519c129 0 251 -102 246 -270c0 -19 -16 -35 -35 -35h-371c15 -83 76 -140 176 -140c46 0 89 16 119 43c9 8 22 9 32 2l30 -19c15 -9 17 -29 6 -41c-46 -46 -111 -71 -187 -71c-168 0 -272 119 -272 265c0 147 107 266 256 266zM131 293h311c-12 85 -65 140 -151 140
c-87 0 -146 -56 -160 -140zM332 727h42c15 0 23 -16 15 -28l-70 -100c-5 -8 -13 -12 -22 -12h-32c-9 0 -16 10 -12 19l47 101c6 12 19 20 32 20z" />
    <glyph glyph-name="ecircumflex" unicode="&#xea;" horiz-adv-x="573" 
d="M291 519c129 0 251 -102 246 -270c0 -19 -16 -35 -35 -35h-371c15 -83 76 -140 176 -140c46 0 89 16 119 43c9 8 22 9 32 2l30 -19c15 -9 17 -29 6 -41c-46 -46 -111 -71 -187 -71c-168 0 -272 119 -272 265c0 147 107 266 256 266zM131 293h311c-12 85 -65 140 -151 140
c-87 0 -146 -56 -160 -140zM423 609c7 -9 1 -22 -10 -22h-41c-11 0 -22 5 -28 15l-57 78l-57 -78c-7 -10 -18 -15 -29 -15h-40c-11 0 -18 13 -11 22l83 104c6 9 17 14 28 14h52c11 0 21 -5 28 -14z" />
    <glyph glyph-name="edieresis" unicode="&#xeb;" horiz-adv-x="573" 
d="M291 519c129 0 251 -102 246 -270c0 -19 -16 -35 -35 -35h-371c15 -83 76 -140 176 -140c46 0 89 16 119 43c9 8 22 9 32 2l30 -19c15 -9 17 -29 6 -41c-46 -46 -111 -71 -187 -71c-168 0 -272 119 -272 265c0 147 107 266 256 266zM131 293h311c-12 85 -65 140 -151 140
c-87 0 -146 -56 -160 -140zM187 705c32 0 58 -25 58 -57s-26 -58 -58 -58s-57 26 -57 58s25 57 57 57zM385 705c32 0 58 -25 58 -57s-26 -58 -58 -58c-31 0 -57 26 -57 58s26 57 57 57z" />
    <glyph glyph-name="egrave" unicode="&#xe8;" horiz-adv-x="573" 
d="M291 519c129 0 251 -102 246 -270c0 -19 -16 -35 -35 -35h-371c15 -83 76 -140 176 -140c46 0 89 16 119 43c9 8 22 9 32 2l30 -19c15 -9 17 -29 6 -41c-46 -46 -111 -71 -187 -71c-168 0 -272 119 -272 265c0 147 107 266 256 266zM131 293h311c-12 85 -65 140 -151 140
c-87 0 -146 -56 -160 -140zM250 727c14 0 26 -8 32 -20l47 -101c4 -9 -2 -19 -12 -19h-32c-9 0 -17 4 -22 12l-70 100c-8 12 0 28 15 28h42z" />
    <glyph glyph-name="iacute" unicode="&#xed;" horiz-adv-x="222" 
d="M93 0c-15 0 -27 12 -27 27v453c0 15 12 27 27 27h37c15 0 27 -12 27 -27v-453c0 -15 -12 -27 -27 -27h-37zM167 727h42c15 0 23 -16 15 -28l-70 -100c-5 -8 -13 -12 -22 -12h-32c-9 0 -16 10 -12 19l47 101c6 12 19 20 32 20z" />
    <glyph glyph-name="icircumflex" unicode="&#xee;" horiz-adv-x="222" 
d="M93 0c-15 0 -27 12 -27 27v453c0 15 12 27 27 27h37c15 0 27 -12 27 -27v-453c0 -15 -12 -27 -27 -27h-37zM248 609c7 -9 1 -22 -10 -22h-41c-11 0 -22 5 -28 15l-57 78l-57 -78c-7 -10 -18 -15 -29 -15h-40c-11 0 -18 13 -11 22l83 104c6 9 17 14 28 14h52
c11 0 21 -5 28 -14z" />
    <glyph glyph-name="idieresis" unicode="&#xef;" horiz-adv-x="222" 
d="M93 0c-15 0 -27 12 -27 27v453c0 15 12 27 27 27h37c15 0 27 -12 27 -27v-453c0 -15 -12 -27 -27 -27h-37zM12 705c32 0 58 -25 58 -57s-26 -58 -58 -58s-57 26 -57 58s25 57 57 57zM210 705c32 0 58 -25 58 -57s-26 -58 -58 -58c-31 0 -57 26 -57 58s26 57 57 57z" />
    <glyph glyph-name="igrave" unicode="&#xec;" horiz-adv-x="222" 
d="M93 0c-15 0 -27 12 -27 27v453c0 15 12 27 27 27h37c15 0 27 -12 27 -27v-453c0 -15 -12 -27 -27 -27h-37zM55 727c14 0 26 -8 32 -20l47 -101c4 -9 -2 -19 -12 -19h-32c-9 0 -17 4 -22 12l-70 100c-8 12 0 28 15 28h42z" />
    <glyph glyph-name="ij" unicode="&#x133;" horiz-adv-x="432" 
d="M93 0c-15 0 -27 12 -27 27v453c0 15 12 27 27 27h37c15 0 27 -12 27 -27v-453c0 -15 -12 -27 -27 -27h-37zM111 597c-28 0 -52 23 -52 52s24 52 52 52c29 0 52 -23 52 -52s-23 -52 -52 -52zM276 9v471c0 15 12 27 27 27h38c14 0 26 -12 26 -27v-489
c0 -95 -52 -175 -175 -175h-13c-12 0 -22 10 -22 22v38c0 12 9 22 21 22c79 5 98 48 98 111zM322 597c-29 0 -52 23 -52 52s23 52 52 52s52 -23 52 -52s-23 -52 -52 -52z" />
    <glyph glyph-name="ntilde" unicode="&#xf1;" horiz-adv-x="572" 
d="M312 519c114 0 195 -94 195 -202v-290c0 -15 -12 -27 -27 -27h-38c-14 0 -26 12 -26 27v264c0 71 -31 142 -126 142c-96 0 -134 -83 -134 -142v-264c0 -15 -12 -27 -27 -27h-38c-15 0 -26 12 -26 27v453c0 15 11 27 26 27h38c15 0 27 -12 27 -27v-44c30 45 79 83 156 83z
M395 682l25 -4c10 -2 16 -12 14 -22c-11 -48 -38 -73 -82 -73c-49 0 -84 33 -122 33c-18 0 -28 -13 -32 -26c-3 -8 -12 -13 -20 -12l-25 5c-11 2 -17 12 -15 21c13 50 40 73 82 73c45 0 82 -33 121 -33c21 0 30 13 34 26c2 8 11 14 20 12z" />
    <glyph glyph-name="oacute" unicode="&#xf3;" horiz-adv-x="602" 
d="M301 519c153 0 266 -120 266 -266s-113 -266 -266 -266s-266 120 -266 266s113 266 266 266zM301 74c100 0 173 76 173 179c0 104 -73 180 -173 180s-172 -76 -172 -180c0 -103 72 -179 172 -179zM347 727h42c15 0 23 -16 15 -28l-70 -100c-5 -8 -13 -12 -22 -12h-32
c-9 0 -16 10 -12 19l47 101c6 12 19 20 32 20z" />
    <glyph glyph-name="ocircumflex" unicode="&#xf4;" horiz-adv-x="602" 
d="M301 519c153 0 266 -120 266 -266s-113 -266 -266 -266s-266 120 -266 266s113 266 266 266zM301 74c100 0 173 76 173 179c0 104 -73 180 -173 180s-172 -76 -172 -180c0 -103 72 -179 172 -179zM437 609c7 -9 1 -22 -10 -22h-41c-11 0 -22 5 -28 15l-57 78l-57 -78
c-7 -10 -18 -15 -29 -15h-40c-11 0 -18 13 -11 22l83 104c6 9 17 14 28 14h52c11 0 21 -5 28 -14z" />
    <glyph glyph-name="odieresis" unicode="&#xf6;" horiz-adv-x="602" 
d="M301 519c153 0 266 -120 266 -266s-113 -266 -266 -266s-266 120 -266 266s113 266 266 266zM301 74c100 0 173 76 173 179c0 104 -73 180 -173 180s-172 -76 -172 -180c0 -103 72 -179 172 -179zM201 705c32 0 58 -25 58 -57s-26 -58 -58 -58s-57 26 -57 58s25 57 57 57
zM399 705c32 0 58 -25 58 -57s-26 -58 -58 -58c-31 0 -57 26 -57 58s26 57 57 57z" />
    <glyph glyph-name="ograve" unicode="&#xf2;" horiz-adv-x="602" 
d="M301 519c153 0 266 -120 266 -266s-113 -266 -266 -266s-266 120 -266 266s113 266 266 266zM301 74c100 0 173 76 173 179c0 104 -73 180 -173 180s-172 -76 -172 -180c0 -103 72 -179 172 -179zM245 727c14 0 26 -8 32 -20l47 -101c4 -9 -2 -19 -12 -19h-32
c-9 0 -17 4 -22 12l-70 100c-8 12 0 28 15 28h42z" />
    <glyph glyph-name="otilde" unicode="&#xf5;" horiz-adv-x="602" 
d="M301 519c153 0 266 -120 266 -266s-113 -266 -266 -266s-266 120 -266 266s113 266 266 266zM301 74c100 0 173 76 173 179c0 104 -73 180 -173 180s-172 -76 -172 -180c0 -103 72 -179 172 -179zM409 682l25 -4c10 -2 16 -12 14 -22c-11 -48 -38 -73 -82 -73
c-49 0 -84 33 -122 33c-18 0 -28 -13 -32 -26c-3 -8 -12 -13 -20 -12l-25 5c-11 2 -17 12 -15 21c13 50 40 73 82 73c45 0 82 -33 121 -33c21 0 30 13 34 26c2 8 11 14 20 12z" />
    <glyph glyph-name="scaron" unicode="&#x161;" horiz-adv-x="453" 
d="M258 294c124 -26 166 -65 166 -142c0 -89 -65 -164 -199 -164c-87 0 -161 30 -193 86c-8 15 0 33 15 38l40 14c12 4 24 -1 31 -11c14 -22 45 -44 109 -44c66 0 103 27 103 72c0 60 -85 59 -156 75c-94 22 -136 68 -136 142c0 93 77 159 188 159c70 0 133 -31 161 -86
c8 -15 0 -34 -16 -38l-36 -10c-11 -3 -23 1 -29 11c-14 22 -43 42 -89 42c-50 0 -86 -29 -86 -71c0 -57 69 -61 127 -73zM85 705c-7 9 0 22 11 22h40c11 0 22 -5 29 -15l57 -78l57 78c6 10 17 15 29 15h40c11 0 17 -13 10 -22l-82 -104c-7 -9 -17 -14 -28 -14h-52
c-11 0 -22 5 -28 14z" />
    <glyph glyph-name="uacute" unicode="&#xfa;" horiz-adv-x="572" 
d="M443 507h38c14 0 26 -12 26 -27v-453c0 -15 -12 -27 -26 -27h-38c-15 0 -27 12 -27 27v44c-30 -46 -79 -83 -156 -83c-114 0 -195 94 -195 202v290c0 15 12 27 27 27h38c14 0 26 -12 26 -27v-264c0 -71 31 -142 126 -142c96 0 134 82 134 142v264c0 15 12 27 27 27z
M332 727h42c15 0 23 -16 15 -28l-70 -100c-5 -8 -13 -12 -22 -12h-32c-9 0 -16 10 -12 19l47 101c6 12 19 20 32 20z" />
    <glyph glyph-name="ucircumflex" unicode="&#xfb;" horiz-adv-x="572" 
d="M443 507h38c14 0 26 -12 26 -27v-453c0 -15 -12 -27 -26 -27h-38c-15 0 -27 12 -27 27v44c-30 -46 -79 -83 -156 -83c-114 0 -195 94 -195 202v290c0 15 12 27 27 27h38c14 0 26 -12 26 -27v-264c0 -71 31 -142 126 -142c96 0 134 82 134 142v264c0 15 12 27 27 27z
M423 609c7 -9 1 -22 -10 -22h-41c-11 0 -22 5 -28 15l-57 78l-57 -78c-7 -10 -18 -15 -29 -15h-40c-11 0 -18 13 -11 22l83 104c6 9 17 14 28 14h52c11 0 21 -5 28 -14z" />
    <glyph glyph-name="udieresis" unicode="&#xfc;" horiz-adv-x="572" 
d="M443 507h38c14 0 26 -12 26 -27v-453c0 -15 -12 -27 -26 -27h-38c-15 0 -27 12 -27 27v44c-30 -46 -79 -83 -156 -83c-114 0 -195 94 -195 202v290c0 15 12 27 27 27h38c14 0 26 -12 26 -27v-264c0 -71 31 -142 126 -142c96 0 134 82 134 142v264c0 15 12 27 27 27z
M186 705c32 0 58 -25 58 -57s-26 -58 -58 -58s-57 26 -57 58s25 57 57 57zM384 705c32 0 58 -25 58 -57s-26 -58 -58 -58c-31 0 -57 26 -57 58s26 57 57 57z" />
    <glyph glyph-name="ugrave" unicode="&#xf9;" horiz-adv-x="572" 
d="M443 507h38c14 0 26 -12 26 -27v-453c0 -15 -12 -27 -26 -27h-38c-15 0 -27 12 -27 27v44c-30 -46 -79 -83 -156 -83c-114 0 -195 94 -195 202v290c0 15 12 27 27 27h38c14 0 26 -12 26 -27v-264c0 -71 31 -142 126 -142c96 0 134 82 134 142v264c0 15 12 27 27 27z
M250 727c14 0 26 -8 32 -20l47 -101c4 -9 -2 -19 -12 -19h-32c-9 0 -17 4 -22 12l-70 100c-8 12 0 28 15 28h42z" />
    <glyph glyph-name="wgrave" unicode="&#x1e81;" horiz-adv-x="774" 
d="M645 482c4 15 18 25 34 25h44c15 0 26 -15 21 -30l-152 -453c-5 -14 -18 -24 -34 -24h-34c-16 0 -29 10 -34 25l-103 320l-102 -320c-5 -15 -19 -25 -34 -25h-35c-15 0 -29 10 -33 24l-153 453c-5 15 6 30 21 30h45c15 0 29 -10 34 -25l105 -349l113 355
c4 11 14 19 26 19h27c11 0 22 -8 25 -19l113 -355zM331 727c14 0 26 -8 32 -20l47 -101c4 -9 -2 -19 -12 -19h-32c-9 0 -17 4 -22 12l-70 100c-8 12 0 28 15 28h42z" />
    <glyph glyph-name="yacute" unicode="&#xfd;" horiz-adv-x="537" 
d="M407 484c5 14 19 23 33 23h45c15 0 26 -16 20 -31c-39 -99 -162 -411 -189 -476c-48 -118 -96 -193 -190 -193c-10 0 -17 0 -25 1c-11 0 -20 10 -20 22v38c0 12 9 22 21 22c55 2 91 30 130 136c-7 18 -152 346 -199 450c-6 14 5 31 21 31h44c14 0 27 -9 32 -22l147 -344z
M324 727h42c15 0 23 -16 15 -28l-70 -100c-5 -8 -13 -12 -22 -12h-32c-9 0 -16 10 -12 19l47 101c6 12 19 20 32 20z" />
    <glyph glyph-name="ydieresis" unicode="&#xff;" horiz-adv-x="537" 
d="M407 484c5 14 19 23 33 23h45c15 0 26 -16 20 -31c-39 -99 -162 -411 -189 -476c-48 -118 -96 -193 -190 -193c-10 0 -17 0 -25 1c-11 0 -20 10 -20 22v38c0 12 9 22 21 22c55 2 91 30 130 136c-7 18 -152 346 -199 450c-6 14 5 31 21 31h44c14 0 27 -9 32 -22l147 -344z
M169 705c32 0 58 -25 58 -57s-26 -58 -58 -58s-57 26 -57 58s25 57 57 57zM367 705c32 0 58 -25 58 -57s-26 -58 -58 -58c-31 0 -57 26 -57 58s26 57 57 57z" />
    <glyph glyph-name="zcaron" unicode="&#x17e;" horiz-adv-x="474" 
d="M160 86h242c15 0 27 -12 27 -26v-33c0 -15 -12 -27 -27 -27h-331c-15 0 -27 12 -27 27v32c0 10 4 19 9 27l251 334h-224c-15 0 -27 12 -27 27v33c0 15 12 27 27 27h313c15 0 27 -12 27 -27v-32c0 -10 -3 -19 -9 -27zM101 705c-7 9 0 22 11 22h40c11 0 22 -5 29 -15
l57 -78l57 78c6 10 17 15 29 15h40c11 0 17 -13 10 -22l-82 -104c-7 -9 -17 -14 -28 -14h-52c-11 0 -22 5 -28 14z" />
    <glyph glyph-name="Eth" unicode="&#xd0;" horiz-adv-x="716" 
d="M305 700c238 0 366 -152 366 -350s-128 -350 -366 -350h-171c-14 0 -26 12 -26 27v287h-75c-13 0 -23 10 -23 23v26c0 13 10 23 23 23h75v287c0 15 12 27 26 27h171zM305 91c166 0 265 102 265 259s-99 259 -265 259h-97v-223h154c12 0 22 -10 22 -23v-26
c0 -13 -10 -23 -22 -23h-154v-223h97z" />
    <glyph glyph-name="ellipsis" unicode="&#x2026;" horiz-adv-x="675" 
d="M112 112c35 0 63 -28 63 -62c0 -35 -28 -63 -63 -63c-34 0 -62 28 -62 63c0 34 28 62 62 62zM337 112c35 0 63 -28 63 -62c0 -35 -28 -63 -63 -63c-34 0 -62 28 -62 63c0 34 28 62 62 62zM562 112c35 0 63 -28 63 -62c0 -35 -28 -63 -63 -63c-34 0 -62 28 -62 63
c0 34 28 62 62 62z" />
    <glyph glyph-name="A" unicode="A" horiz-adv-x="674" 
d="M571 0c-16 0 -29 10 -34 24l-51 145h-300l-51 -145c-5 -14 -18 -24 -33 -24h-58c-12 0 -21 12 -16 24l243 653c5 14 18 23 33 23h64c15 0 28 -9 33 -23l244 -653c4 -12 -5 -24 -17 -24h-57zM219 260h235l-118 333z" />
  </font>
</defs>
</svg>
